<?xml version="1.0" encoding="utf-8"?>
<!-- Generator: Adobe Illustrator 27.0.0, SVG Export Plug-In . SVG Version: 6.00 Build 0)  -->
<svg version="1.1" id="Layer_1" xmlns="http://www.w3.org/2000/svg" xmlns:xlink="http://www.w3.org/1999/xlink" x="0px" y="0px"
	 viewBox="0 0 200 200" style="enable-background:new 0 0 200 200;" xml:space="preserve">
<style type="text/css">
	.st0{fill:#0B0B0B;}
	.st1{fill:#FFFFFF;}
	.st2{fill:url(#SVGID_1_);}
</style>
<g id="pmXdcq_00000080166684660838374960000016314642350402266536_">
	<g>
		<path class="st0" d="M183.8,99.9c0,13.8,0.4,27.7-0.3,41.5c-0.2,3.8-2.9,9.1-6.1,11c-23.6,14.3-47.6,28.1-71.7,41.5
			c-2.8,1.6-8.1,1.6-10.9,0.1c-24.7-13.7-49.2-27.8-73.5-42.3c-2.5-1.5-4.8-5.8-4.9-8.8c-0.4-28.3-0.4-56.6,0.1-84.9
			c0-3.2,2.6-7.7,5.3-9.3C45.5,34.5,69.6,20.9,93.4,6.9c4.6-2.7,8.1-3.1,12.9-0.3c24,14.2,48.4,27.9,72.4,42.2
			c2.5,1.5,4.8,5.6,4.9,8.6C184.1,71.6,183.8,85.8,183.8,99.9z M180.4,100.5c0,0,0.1,0,0.1,0c0-12.9,0.5-25.9-0.3-38.7
			c-0.2-3.8-3.1-9-6.3-11c-22.3-13.5-44.9-26.5-67.8-39.2c-3.1-1.7-8.6-1.7-11.7-0.1c-23.1,12.8-46,26-68.6,39.5
			c-2.7,1.6-5.2,6.3-5.2,9.5c-0.4,25.8-0.1,51.7-0.4,77.5c-0.1,6.1,2,9.7,7.3,12.7c22.2,12.5,44,25.6,66.3,37.9
			c3.1,1.7,8.8,2,11.8,0.3c23.1-12.8,46-26,68.6-39.6c3-1.8,5.7-6.6,5.9-10.2C180.8,126.4,180.4,113.4,180.4,100.5z"/>
		<path class="st1" d="M180.4,100.5c0,12.9,0.4,25.9-0.3,38.7c-0.2,3.6-2.9,8.4-5.9,10.2c-22.6,13.6-45.5,26.8-68.6,39.6
			c-3,1.7-8.7,1.4-11.8-0.3c-22.3-12.3-44.1-25.4-66.3-37.9c-5.4-3-7.4-6.6-7.3-12.7c0.3-25.8,0-51.7,0.4-77.5
			c0.1-3.3,2.5-7.9,5.2-9.5c22.6-13.6,45.5-26.8,68.6-39.5c3-1.7,8.6-1.6,11.7,0.1c22.8,12.6,45.4,25.6,67.8,39.2
			c3.2,2,6.1,7.1,6.3,11c0.8,12.9,0.3,25.8,0.3,38.7C180.5,100.5,180.4,100.5,180.4,100.5z M164.6,63.5c0.6-0.3,0.6-1.2,0-1.6
			c-21.3-12.4-41.2-24.1-61.2-35.3c-2-1.1-6-0.2-8.3,1.1C77,37.8,59.2,48.4,41.2,58.6c-4.3,2.4-6.1,5-6,10.2
			c0.4,16.7,1.2,33.4-0.2,50c-1.2,14.2,3.2,22.3,16.3,28.4c15.6,7.3,30.1,16.8,46.7,26.5c0.6,0.3,1.3-0.1,1.3-0.8c0-4.1,0-6.8,0-9.4
			c0-17.9,0.2-35.8-0.2-53.8c-0.1-6.1,1.9-9.7,7.3-12.7C125.6,86.3,144.4,75.3,164.6,63.5z"/>
		<linearGradient id="SVGID_1_" gradientUnits="userSpaceOnUse" x1="99.9567" y1="173.7261" x2="99.9567" y2="26.1539">
			<stop  offset="0" style="stop-color:#B31E37"/>
			<stop  offset="0.9997" style="stop-color:#DB1E34"/>
		</linearGradient>
		<path class="st2" d="M164.6,62c0.6,0.3,0.6,1.2,0,1.6c-20.3,11.7-39,22.8-58.1,33.4c-5.4,3-7.5,6.6-7.3,12.7
			c0.3,17.9,0.1,35.8,0.2,53.8c0,2.7,0,5.4,0,9.4c0,0.7-0.7,1.1-1.3,0.8c-16.7-9.6-31.2-19.2-46.7-26.5
			C38.2,141,33.8,132.9,35,118.8c1.4-16.5,0.6-33.3,0.2-50c-0.1-5.2,1.7-7.8,6-10.2c18-10.2,35.9-20.7,53.9-30.9
			c2.3-1.3,6.3-2.2,8.3-1.1C123.5,37.9,143.3,49.6,164.6,62z"/>
	</g>
</g>
</svg>
