<?xml version="1.0" encoding="utf-8"?>
<!-- Generator: Adobe Illustrator 27.0.0, SVG Export Plug-In . SVG Version: 6.00 Build 0)  -->
<svg version="1.1" id="Layer_1" xmlns="http://www.w3.org/2000/svg" xmlns:xlink="http://www.w3.org/1999/xlink" x="0px" y="0px"
	 viewBox="0 0 401.6 203.6" style="enable-background:new 0 0 401.6 203.6;" xml:space="preserve">
<style type="text/css">
	.st0{fill-rule:evenodd;clip-rule:evenodd;fill:#FEFEFE;stroke:#FEFEFE;stroke-width:0.5669;stroke-miterlimit:22.9256;}
	.st1{fill-rule:evenodd;clip-rule:evenodd;fill:#F50000;}
	.st2{fill-rule:evenodd;clip-rule:evenodd;}
	.st3{fill-rule:evenodd;clip-rule:evenodd;fill:#FEFEFE;}
	.st4{fill:#FFFFFF;}
</style>
<g id="Направляющие_для_монтажной_области">
</g>
<g id="Слой_1">
	<g>
		<path class="st0" d="M150.2,91.7c22,0,39.9-17.9,39.9-39.9s-17.9-39.9-39.9-39.9s-39.9,17.9-39.9,39.9
			C110.2,73.7,128.2,91.7,150.2,91.7z"/>
		<g id="_x33_62bG4.tif">
			<g>
				<path d="M166.6,36.9c0,13,0,26.1,0,39.1c0,0.1,0,0.1,0,0.2c-0.2,1.3-0.7,2.5-1.7,3.4c-1.1,1-2.4,1.5-3.9,1.5c-7,0-13.9,0-20.9,0
					c-0.4,0-0.8,0-1.2,0c-1-0.1-2-0.4-2.8-1c-1.6-1.1-2.3-2.7-2.3-4.6c0-12.7,0-25.3,0-38c0-0.5,0.1-1.1,0.2-1.6c0.6-2.3,2.7-4,5-4
					c0.9,0,1.8,0,2.7,0c0.1,0,0.1,0,0.2,0c0-0.1,0-0.2,0-0.2c0-0.8,0-1.7,0-2.5c0-1.1,0.6-2,1.6-2.5c0.3-0.1,0.6-0.2,1-0.3
					c3.7,0,7.5,0,11.2,0h0.1c1.3,0.1,2.5,1.3,2.5,2.8c0,0.8,0,1.6,0,2.4c0,0.1,0,0.1,0,0.2c0.1,0,0.2,0,0.3,0c0.8,0,1.6,0,2.4,0
					c0.4,0,0.8,0,1.2,0.1c2.2,0.5,3.6,1.9,4.2,4C166.5,36.3,166.5,36.6,166.6,36.9z M150.2,42.9C150.1,42.9,150.1,42.9,150.2,42.9
					c-2.8,5.4-5.5,10.9-8.2,16.3c2.8,0,5.5,0,8.2,0c0,3.6,0,7.2,0,10.8l0,0c2.7-5.4,5.4-10.9,8.2-16.3c-2.8,0-5.5,0-8.2,0
					C150.2,50.1,150.2,46.5,150.2,42.9z"/>
			</g>
		</g>
		<path class="st1" d="M150.2,6c-25.2,0-45.7,20.5-45.7,45.7s20.5,45.7,45.7,45.7s45.7-20.5,45.7-45.7S175.4,6,150.2,6L150.2,6z
			 M126.4,23c6.4-5.3,14.7-8.5,23.7-8.5c20.6,0,37.2,16.7,37.2,37.2c0,9-3.2,17.3-8.5,23.7L126.4,23L126.4,23z M173.9,80.5
			c-6.4,5.3-14.7,8.5-23.7,8.5C129.6,89,113,72.3,113,51.8c0-9,3.2-17.3,8.5-23.7L173.9,80.5z"/>
	</g>
	<g>
		<path class="st0" d="M49.7,91.7c22,0,39.9-17.9,39.9-39.9S71.7,11.9,49.7,11.9S9.8,29.8,9.8,51.8C9.7,73.7,27.7,91.7,49.7,91.7z"
			/>
		<g>
			<path class="st2" d="M49.2,67.4c-3.3-1-6.7-2-10-3c-0.7-1.1-1.8-2.8-2.2-3.3c-3.1-4.7-5.4-11.9-2.8-17.3
				c1.4-2.9,5.7-6.2,8.7-10.2c0.5-0.7,1-1.5,1.4-2.2c1.1-1.9,2.5-5.5,2.4-8.4c-0.1-2.5-0.7-2.2-1.4-3.6c10.7,3.8,15.3,13.3,12.5,24
				c-0.3,1.1-1.8,4.1-3.5,6.8C49.2,58.6,48,57.5,49.2,67.4z"/>
			<path class="st2" d="M51.8,60.7c1.5-5.6,5.5-6.3,8.1-13.6c0.7-1.9,0.8-4.9,0.9-7c9,7.7,5.1,16,0.3,24.3c-3.1,1-6.2,2-9.2,3.1
				C51.5,65.3,51.3,62.8,51.8,60.7z"/>
			<polygon class="st2" points="67.3,73.3 31.9,64.7 31.9,72.3 67.3,80.9 			"/>
			<polygon class="st2" points="50.1,77.5 36.2,74.1 31.9,75.2 31.9,82 			"/>
			<polygon class="st2" points="52.5,68.7 66.6,72.2 67.3,72 67.3,65.1 			"/>
		</g>
		<path class="st1" d="M49.7,6C24.4,6,4,26.5,4,51.8C4,77,24.4,97.5,49.7,97.5S95.4,77,95.4,51.8C95.4,26.5,74.9,6,49.7,6L49.7,6z
			 M25.9,23c6.4-5.3,14.7-8.5,23.7-8.5c20.6,0,37.2,16.7,37.2,37.2c0,9-3.2,17.3-8.5,23.7L25.9,23L25.9,23z M73.4,80.5
			C67,85.8,58.7,89,49.7,89c-20.6,0-37.2-16.7-37.2-37.2c0-9,3.2-17.3,8.5-23.7L73.4,80.5z"/>
	</g>
	<g>
		<path class="st0" d="M250.2,91.7c22,0,39.9-17.9,39.9-39.9s-17.9-39.9-39.9-39.9s-39.9,17.9-39.9,39.9
			C210.2,73.7,228.2,91.7,250.2,91.7z"/>
		<g id="ygbiya_00000162350525464099446440000017509663260182675382_">
			<g>
				<path d="M234.8,59.6c0-6,0-12,0-18c0-0.7,0.3-1,1-1c5.5,0,10.9,0,16.4,0c0.7,0,1,0.3,1,1c0,12,0,24,0,36c0,0.8-0.3,1.1-1.1,1.1
					c-5.5,0-10.9,0-16.4,0c-0.7,0-1.1-0.3-1.1-1.1C234.8,71.6,234.8,65.6,234.8,59.6z"/>
				<path d="M237,39.4c0.3-0.6,0.7-1.1,1.2-1.6c1.3-1.3,2.8-2,4.6-2.2c2.1-0.3,4.1,0.1,6,1.3c0.9,0.6,1.7,1.4,2.2,2.3
					c0,0.1,0.1,0.1,0.1,0.2C246.3,39.4,241.7,39.4,237,39.4z"/>
				<path d="M268.1,20.9c0,0.2-0.2,0.3-0.3,0.4c-1.1,0.5-2.2,1-3.2,1.5c-5,2.3-9.9,4.6-14.9,6.9c0,0-0.1,0-0.1,0.1
					c-0.2,0.1-0.4,0-0.5-0.2s0-0.4,0.2-0.5c0.9-0.4,1.7-0.8,2.6-1.2c5.2-2.4,10.3-4.8,15.5-7.2c0.1,0,0.2-0.1,0.3-0.1
					C267.9,20.4,268.1,20.6,268.1,20.9z"/>
				<path d="M249.2,31.3c-0.2,0-0.4-0.1-0.4-0.3c0-0.2,0.1-0.4,0.3-0.4c0.4-0.1,0.8-0.2,1.3-0.3c6.1-1.3,12.2-2.7,18.3-4
					c0.4-0.1,0.6,0,0.7,0.3s-0.1,0.4-0.5,0.5c-6.5,1.4-13,2.9-19.5,4.3C249.3,31.3,249.2,31.3,249.2,31.3z"/>
				<path d="M249.2,33.6c0.4,0.1,0.9,0.2,1.4,0.3c6.1,1.3,12.2,2.7,18.4,4h0.1c0.3,0.1,0.4,0.3,0.3,0.5s-0.2,0.3-0.5,0.3
					c-0.7-0.2-1.5-0.3-2.2-0.5c-5.8-1.3-11.6-2.5-17.3-3.8c-0.1,0-0.2,0-0.2-0.1c-0.2-0.1-0.3-0.2-0.3-0.4
					C248.8,33.7,249,33.6,249.2,33.6z"/>
				<path d="M259.3,32.8c-3.3,0-6.7,0-10,0c-0.2,0-0.3,0-0.4-0.2c-0.1-0.3,0-0.6,0.4-0.6s0.7,0,1.1,0c3.1,0,6.2,0,9.3,0
					c3.3,0,6.5,0,9.8,0c0.3,0,0.5,0.1,0.5,0.4c0,0.2-0.2,0.4-0.5,0.4c-1.1,0-2.2,0-3.2,0C263.8,32.9,261.5,32.9,259.3,32.8
					C259.3,32.9,259.3,32.8,259.3,32.8z"/>
				<path d="M245.4,33.2c0,0.5,0,1,0,1.4c-1,0-1.9,0-2.9,0c0-1.4,0-2.9,0-4.3c1,0,1.9,0,2.8,0c0,0.6,0,1.2,0,1.8
					c-0.3,0.1-0.8,0.1-0.8,0.6C244.7,33.1,245.1,33.1,245.4,33.2z"/>
			</g>
		</g>
		<path class="st1" d="M250.2,6c-25.2,0-45.7,20.5-45.7,45.7s20.5,45.7,45.7,45.7s45.7-20.5,45.7-45.7S275.4,6,250.2,6L250.2,6z
			 M226.4,23c6.4-5.3,14.7-8.5,23.7-8.5c20.6,0,37.2,16.7,37.2,37.2c0,9-3.2,17.3-8.5,23.7L226.4,23L226.4,23z M273.9,80.5
			c-6.4,5.3-14.7,8.5-23.7,8.5C229.6,89,213,72.3,213,51.8c0-9,3.2-17.3,8.5-23.7L273.9,80.5z"/>
	</g>
	<g>
		<path class="st0" d="M51.2,190.9c22,0,39.9-17.9,39.9-39.9s-17.9-40-39.9-40s-39.9,17.9-39.9,39.9S29.2,190.9,51.2,190.9z"/>
		<g>
			<path class="st2" d="M47.1,121c7.7,0.3,15.4,2.3,23.1,6.5c1.4,0.8,2.5,2,2.1,3.4L59.6,176c-0.4,1.4-2,2.3-3.6,1.8l-23.1-6.5
				c-1.6-0.4-2.5-2-2.1-3.4l12.7-45.1C44,121.4,45.5,121,47.1,121z"/>
			<path class="st3" d="M41.8,148.2l4.2,1.2c0.5,0.1,0.8,0.5,0.7,0.9l-0.5,2c-0.1,0.4-0.6,0.6-1.1,0.4l-4.2-1.2
				c-0.5-0.1-0.8-0.5-0.7-0.9l0.5-2C40.8,148.3,41.3,148.1,41.8,148.2z"/>
			<path class="st3" d="M49.2,150.3l4.2,1.2c0.5,0.1,0.8,0.5,0.7,0.9l-0.5,2c-0.1,0.4-0.6,0.6-1.1,0.4l-4.2-1.2
				c-0.5-0.1-0.8-0.5-0.7-0.9l0.5-2C48.2,150.3,48.7,150.1,49.2,150.3z"/>
			<path class="st3" d="M56.5,152.3l4.2,1.2c0.5,0.1,0.8,0.5,0.7,0.9l-0.5,2c-0.1,0.4-0.6,0.6-1.1,0.4l-4.2-1.2
				c-0.5-0.1-0.8-0.5-0.7-0.9l0.5-2C55.6,152.4,56,152.2,56.5,152.3z"/>
			<path class="st3" d="M40.2,153.8l4.2,1.2c0.5,0.1,0.8,0.5,0.7,0.9l-0.5,2c-0.1,0.4-0.6,0.6-1.1,0.4l-4.2-1.2
				c-0.5-0.1-0.8-0.5-0.7-0.9l0.5-2C39.2,153.9,39.7,153.7,40.2,153.8z"/>
			<path class="st3" d="M47.6,155.9l4.2,1.2c0.5,0.1,0.8,0.5,0.7,0.9l-0.5,2c-0.1,0.4-0.6,0.6-1.1,0.4l-4.2-1.2
				c-0.5-0.1-0.8-0.5-0.7-0.9l0.5-2C46.6,155.9,47.1,155.8,47.6,155.9z"/>
			<path class="st3" d="M54.9,158l4.2,1.2c0.5,0.1,0.8,0.5,0.7,0.9l-0.5,2c-0.1,0.4-0.6,0.6-1.1,0.4l-4.2-1.2
				c-0.5-0.1-0.8-0.5-0.7-0.9l0.5-2C54,158,54.5,157.8,54.9,158z"/>
			<path class="st3" d="M38.6,159.5l4.2,1.2c0.5,0.1,0.8,0.5,0.7,0.9l-0.5,2c-0.1,0.4-0.6,0.6-1.1,0.4l-4.2-1.2
				c-0.5-0.1-0.8-0.5-0.7-0.9l0.5-2C37.7,159.5,38.1,159.3,38.6,159.5z"/>
			<path class="st3" d="M46,161.5l4.2,1.2c0.5,0.1,0.8,0.5,0.7,0.9l-0.5,2c-0.1,0.4-0.6,0.6-1.1,0.4l-4.2-1.2
				c-0.5-0.1-0.8-0.5-0.7-0.9l0.5-2C45,161.6,45.5,161.4,46,161.5z"/>
			<path class="st3" d="M53.4,163.6l4.2,1.2c0.5,0.1,0.8,0.5,0.7,0.9l-0.5,2c-0.1,0.4-0.6,0.6-1.1,0.4l-4.2-1.2
				c-0.5-0.1-0.8-0.5-0.7-0.9l0.5-2C52.4,163.6,52.9,163.5,53.4,163.6z"/>
			<path class="st3" d="M37.1,165.1l4.2,1.2c0.5,0.1,0.8,0.5,0.7,0.9l-0.5,2c-0.1,0.4-0.6,0.6-1.1,0.4l-4.2-1.2
				c-0.5-0.1-0.8-0.5-0.7-0.9l0.5-2C36.1,165.1,36.6,165,37.1,165.1z"/>
			<path class="st3" d="M44.4,167.2l4.2,1.2c0.5,0.1,0.8,0.5,0.7,0.9l-0.5,2c-0.1,0.4-0.6,0.6-1.1,0.4l-4.2-1.2
				c-0.5-0.1-0.8-0.5-0.7-0.9l0.5-2C43.5,167.2,43.9,167,44.4,167.2z"/>
			<path class="st3" d="M51.8,169.2l4.2,1.2c0.5,0.1,0.8,0.5,0.7,0.9l-0.5,2c-0.1,0.4-0.6,0.6-1.1,0.4l-4.2-1.2
				c-0.5-0.1-0.8-0.5-0.7-0.9l0.5-2C50.8,169.3,51.3,169.1,51.8,169.2z"/>
			<path class="st3" d="M49.4,124.9l16.8,4.7c1.1,0.3,1.8,1.5,1.5,2.7l-4.8,17.1c-0.3,1.1-1.5,1.8-2.7,1.5l-16.8-4.7
				c-1.1-0.3-1.8-1.5-1.5-2.7l4.8-17.1C47.1,125.2,48.3,124.5,49.4,124.9z"/>
			<path class="st3" d="M56.5,123.9l4.3,1.2c0.3,0.1,0.4,0.4,0.4,0.7l0,0c-0.1,0.3-0.4,0.4-0.7,0.4l-4.3-1.2
				c-0.3-0.1-0.4-0.4-0.4-0.7l0,0C55.9,123.9,56.2,123.8,56.5,123.9z"/>
		</g>
		<path class="st1" d="M51.2,105.2c-25.2,0-45.7,20.5-45.7,45.7s20.5,45.7,45.7,45.7s45.7-20.5,45.7-45.7S76.4,105.2,51.2,105.2
			L51.2,105.2z M27.4,122.2c6.4-5.3,14.7-8.5,23.7-8.5c20.6,0,37.2,16.7,37.2,37.2c0,9-3.2,17.3-8.5,23.7L27.4,122.2L27.4,122.2z
			 M74.9,179.6c-6.4,5.3-14.7,8.5-23.7,8.5c-20.6,0-37.2-16.7-37.2-37.2c0-9,3.2-17.3,8.5-23.7L74.9,179.6z"/>
	</g>
	<g>
		<path class="st0" d="M350,91.7c22,0,39.9-17.9,39.9-39.9S372,11.9,350,11.9s-39.9,17.9-39.9,39.9C310,73.8,328,91.7,350,91.7z"/>
		<g id="KyeP1G.tif">
			<g>
				<path d="M343.5,71.4c0.8,0.5,1.5,1,2.3,1.5c-3,3.6-6.7,5.4-11.3,4.7c-4.9-0.7-8.3-3.5-9.8-8.2c-1.6-4.9-0.1-9.1,3.5-12.8
					c0.2,0.3,0.3,0.6,0.4,0.9c0.6,1.3,1.3,2.7,1.9,4c0.3,0.6,0.9,0.9,1.5,0.7c0.8-0.3,1.6-0.6,2.4-0.9c0.3-0.1,0.4-0.1,0.6,0.2
					c0.2,0.3,0.4,0.6,0.6,0.9c0.6,1.3,1.6,2,3,2.3c0.8,0.2,1.6,0.2,2.4,0.2c0.4,0,0.6,0.1,0.8,0.5c0.7,1.3,1.5,2.6,2.3,3.9
					c0.2,0.3,0.2,0.5,0,0.8C343.9,70.5,343.7,70.9,343.5,71.4z M334.1,63.5c-0.2,0.1-0.4,0.1-0.5,0.2c-1.2,0.6-2.3,0.6-3.5,0.1
					c-0.4-0.2-0.7-0.4-0.9-0.8c-0.4-0.9-0.8-1.8-1.3-2.7c-2.8,4.1-2.2,10.3,2.5,13.6c4.4,3.2,10,1.9,12.4-0.7
					c-0.5-0.4-1.1-0.7-1.6-1.1c0.3-0.7,0.6-1.4,0.9-2c0.1-0.2,0.1-0.5,0-0.6c-0.4-0.8-0.9-1.6-1.4-2.4c-0.1-0.1-0.3-0.3-0.4-0.3
					c-1.6,0.1-2.9-0.6-4.3-1.1c-0.3-0.1-0.5-0.3-0.7-0.5C334.8,64.6,334.4,64.1,334.1,63.5z"/>
				<path d="M344.7,56.3c-0.5-0.7-1-1.4-1.4-2.1c-0.1-0.2,0-0.5,0.1-0.7c2.2-5.2,4.5-10.3,6.7-15.5c1.6-3.7,3.2-7.3,4.8-11
					c0.1-0.2,0.2-0.3,0.3-0.6c0.6,0.3,1.2,0.5,1.8,0.8c-3.4,7.9-6.8,15.7-10.2,23.5l0.1,0.1c3.6-4.1,7.1-8.2,10.7-12.3
					c0,0,0.1,0,0.1,0.1c-0.2,1.2-0.5,2.4-0.7,3.5c0,0.2-0.2,0.3-0.3,0.5c-3.9,4.5-7.8,9-11.8,13.6C344.8,56.2,344.8,56.3,344.7,56.3
					z"/>
				<path d="M347.8,61c-0.3-0.5-0.6-0.9-0.9-1.4c0.1-0.1,0.2-0.3,0.3-0.4c4.5-4.6,8.9-9.2,13.4-13.9c0.3-0.3,0.5-0.4,0.9-0.3
					c0.6,0.1,1.1,0.2,1.9,0.3c-3.4,3.5-6.7,7-10.1,10.5c0,0,0,0.1,0.1,0.1c7.1-3.7,14.1-7.3,21.3-11c0.3,0.6,0.6,1.2,0.9,1.8
					C366.2,51.5,357,56.2,347.8,61z"/>
				<path d="M330.7,47.4c0.2-1.7,0.4-3.4,0.6-5.1c0.6,0.6,1.2,1.2,1.7,1.7c0.1,0.1,0.1,0.3,0.1,0.4c-0.5,4.4-1,8.8-1.5,13.2
					c0,0.1,0,0.1-0.1,0.3c-2.8-10.4-5.5-20.6-8.3-30.8c0.6-0.2,1.3-0.3,1.9-0.5c0.3,1.3,0.7,2.5,1,3.7c0.6,2.3,1.2,4.6,1.9,7
					c0,0.1,0.1,0.2,0.1,0.3c0,1.7,1,3,1.3,4.6c0.3,1.6,0.8,3.1,1.2,4.7C330.6,47,330.6,47.1,330.7,47.4z"/>
				<path d="M347,66c9.1-4.4,18.3-8.7,27.5-13.1c0.3,0.6,0.6,1.2,0.9,1.8c-5.9,2.8-11.7,5.6-17.6,8.4v0.1c0.9-0.1,1.8-0.1,2.7-0.2
					v0.1c-0.6,0.3-1.2,0.6-1.7,1c-1.5,1.1-3.1,1.4-4.9,1.5c-2,0.1-3.9,0.3-5.8,0.5c-0.4,0-0.7,0-1.1,0.1C347,66.1,347,66.1,347,66z"
					/>
				<path d="M364.5,71.7c-1.3,0-2.6,0-3.9,0v0.1c4.9,1.6,9.8,3.3,14.7,4.9c-0.2,0.6-0.4,1.2-0.6,1.9c-8.8-2.9-17.6-5.9-26.4-8.8
					v-0.1c0.2,0,0.3,0,0.5,0c4.3,0,8.7,0,13,0c0.3,0,0.6,0.1,0.9,0.3c0.7,0.5,1.3,1,1.9,1.5C364.5,71.6,364.5,71.7,364.5,71.7z"/>
				<path d="M369.9,60c0,0.3,0,0.5,0,0.7c0,1.9,0,3.8,0,5.8c0,0.3-0.1,0.7-0.3,1c-0.8,1.2-1.6,2.4-2.4,3.7c-2.3-1.9-4.6-3.7-7-5.6
					C363.4,63.7,366.6,61.9,369.9,60z M366.6,68.2c1.6-1.3,1.4-3,1.3-4.7c-1.4,0.8-2.8,1.6-4.2,2.4
					C364.8,66.7,365.7,67.5,366.6,68.2z"/>
				<path d="M365.8,34.6c0.4,3.2,0.9,6.2,1.3,9.4c-2.8-0.5-5.5-0.9-8.3-1.4c0.2-0.9,0.3-1.7,0.5-2.5c0.2-1.2,0.5-2.5,0.8-3.7
					c0-0.2,0.2-0.4,0.4-0.5C362.2,35.5,364,35.1,365.8,34.6z M364.8,41.6c-0.2-1.6-0.4-3-0.7-4.5c-0.4,0.1-0.7,0.2-1,0.2
					c-1.1,0.1-1.6,0.6-1.6,1.7c0,0.7-0.2,1.3-0.4,2C362.4,41.2,363.5,41.4,364.8,41.6z"/>
				<path d="M334.8,42.9c-1.6-1.6-3.1-3.1-4.6-4.6c-0.1-0.1-0.2-0.3-0.2-0.4c0-1.6,0-3.2,0-4.9c2-0.5,4.1-1,6.2-1.5
					C335.7,35.4,335.3,39.1,334.8,42.9z M332.1,34.6c0,0.6,0.1,1.3,0,1.9c-0.2,1.1,0.6,1.5,1.3,2.2c0.2-1.6,0.4-3,0.6-4.5
					C333.2,34.3,332.7,34.5,332.1,34.6z"/>
				<path d="M336.5,57.9c0.5-5.5,0.9-10.7,1.3-16h0.1c0.3,0.8,0.6,1.7,0.8,2.5c0.5,1.4,1,2.9,1.4,4.3c0.1,0.2,0.1,0.5,0,0.7
					c-1.1,2.7-2.3,5.3-3.5,8C336.7,57.6,336.6,57.7,336.5,57.9z"/>
				<path d="M339,26.8c0.7,0.1,1.3,0.1,2,0.2c-0.1,0.8-0.1,1.6-0.2,2.3c-0.3,3.1-0.5,6.3-0.8,9.4c0,0.2-0.2,0.4-0.3,0.4
					c-0.5,0.2-1.1,0.4-1.8,0.6C338.3,35.4,338.7,31.1,339,26.8z"/>
				<path d="M348.1,26.5c0.6,0.3,1.2,0.5,1.8,0.8c-0.4,0.8-0.7,1.6-1,2.4c-1,2.4-2.1,4.8-3.1,7.1c-0.1,0.2-0.4,0.5-0.6,0.6
					c-0.6,0.3-1.3,0.4-2.1,0.7C344.8,34.1,346.4,30.3,348.1,26.5z"/>
				<path d="M342.3,56.3c1,1.4,2,3,3,4.5c-0.7,0.7-1.4,1.4-2.2,2.2c-1.5-1-3-2-4.5-3C339.8,58.8,341,57.6,342.3,56.3z"/>
				<path d="M339.8,41.2c1.8-0.6,3.5-1.2,5.2-1.7c0,1.2,0,2.4,0,3.6c0,0.1-0.1,0.3-0.2,0.3c-1.1,1.1-2.1,2.1-3.3,3.3
					C341,44.8,340.4,43,339.8,41.2z"/>
				<path d="M368.6,39.9c-0.1-0.8-0.2-1.5-0.3-2.1c0-0.2,0-0.4,0.1-0.5c1.9-2,3.8-4,5.7-6c0,0,0.1,0,0.2-0.1
					c0.4,0.5,0.8,0.9,1.3,1.4C373.3,35,371,37.4,368.6,39.9z"/>
				<path d="M368.2,26.2c0.5,0.4,1,0.9,1.5,1.3c-0.6,0.7-1.3,1.5-1.9,2.2c-0.8,0.9-1.5,1.8-2.3,2.7c-0.1,0.1-0.3,0.3-0.4,0.3
					c-1,0.3-2,0.5-3.2,0.8C364,31,366.1,28.6,368.2,26.2z"/>
				<path d="M374.9,69.7c0,0.7,0,1.3,0,1.9c-1.9,0-3.7,0-5.7,0c0.4-0.7,0.8-1.3,1.2-1.8c0-0.1,0.2-0.1,0.3-0.1
					C372.1,69.7,373.5,69.7,374.9,69.7z"/>
				<path d="M333.1,26.8c0.7,0.1,1.3,0.1,2,0.2c-0.1,0.9-0.2,1.8-0.3,2.7c0,0.1-0.2,0.2-0.3,0.2c-0.6,0.2-1.1,0.3-1.8,0.5
					C332.8,29.1,332.9,28,333.1,26.8z"/>
				<path d="M372,64c0-0.7,0-1.3,0-2c0.9-0.1,1.9-0.2,2.9-0.3c0.1,0.7,0.1,1.3,0.2,2C374,63.8,373,63.9,372,64z"/>
				<path class="st4" d="M363.7,65.9c1.4-0.8,2.8-1.6,4.2-2.4"/>
			</g>
		</g>
		<path class="st1" d="M350,6.1c-25.2,0-45.7,20.5-45.7,45.7s20.5,45.7,45.7,45.7c25.2,0,45.7-20.5,45.7-45.7S375.2,6.1,350,6.1
			L350,6.1z M326.2,23.1c6.4-5.3,14.7-8.5,23.7-8.5c20.6,0,37.2,16.7,37.2,37.2c0,9-3.2,17.3-8.5,23.7L326.2,23.1L326.2,23.1z
			 M373.7,80.5C367.3,85.8,359,89,350,89c-20.6,0-37.2-16.7-37.2-37.2c0-9,3.2-17.3,8.5-23.7L373.7,80.5z"/>
	</g>
	<g>
		<g>
			<path class="st1" d="M150.6,104.9c-25.2,0-45.7,20.5-45.7,45.7s20.5,45.7,45.7,45.7s45.7-20.5,45.7-45.7
				C196.3,125.3,175.9,104.9,150.6,104.9z M187.8,152.5c0,0.5,0,0.9-0.1,1.4v0.1c0,0.5-0.1,0.9-0.1,1.4c-0.2,1.6-0.5,3.2-0.9,4.7
				c0,0.2-0.1,0.4-0.2,0.7c-0.1,0.3-0.2,0.6-0.3,1c-0.1,0.3-0.2,0.6-0.3,0.9c-0.2,0.6-0.4,1.2-0.6,1.7c-0.1,0.3-0.2,0.6-0.3,0.8
				c-0.1,0.3-0.2,0.6-0.4,0.8c-0.1,0.3-0.2,0.5-0.4,0.8c-0.1,0.3-0.2,0.5-0.4,0.8c-1.2,2.4-2.7,4.7-4.5,6.8l0,0
				c-1.5,1.8-3.2,3.5-5,5l0,0c-2.3,1.9-4.9,3.5-7.6,4.9c-0.3,0.1-0.5,0.3-0.8,0.4c-0.3,0.1-0.5,0.3-0.8,0.4
				c-0.3,0.1-0.6,0.2-0.8,0.3c-0.6,0.2-1.1,0.4-1.7,0.6c-0.3,0.1-0.6,0.2-0.9,0.3s-0.6,0.2-0.9,0.3s-0.6,0.2-0.8,0.2
				c-1.3,0.3-2.6,0.6-3.9,0.8c-0.2,0-0.4,0.1-0.7,0.1l0,0c-0.5,0.1-0.9,0.1-1.3,0.2H154c-0.5,0-0.9,0.1-1.4,0.1c-0.1,0-0.2,0-0.2,0
				c-0.5,0-1.1,0-1.7,0c-2.6,0-5.1-0.3-7.5-0.8c-14.5-3-26-14.4-29-29c-0.5-2.4-0.8-4.9-0.8-7.5c0-0.6,0-1.1,0-1.7
				c0-0.1,0-0.2,0-0.2c0-0.5,0-0.9,0.1-1.4v-0.1c0-0.5,0.1-0.9,0.2-1.3l0,0c0-0.2,0-0.4,0.1-0.7c0.2-1.3,0.5-2.6,0.8-3.9
				c0.1-0.3,0.1-0.6,0.2-0.8c0.1-0.3,0.2-0.6,0.3-0.9c0.1-0.3,0.2-0.6,0.3-0.9c0.2-0.6,0.4-1.2,0.6-1.7c1.4-3.7,3.5-7.1,6-10.1l0,0
				c1.5-1.8,3.2-3.5,5-5l0,0c3-2.5,6.4-4.5,10.1-5.9c0.6-0.2,1.1-0.4,1.7-0.6c0.6-0.2,1.2-0.4,1.8-0.5c0.3-0.1,0.6-0.2,0.8-0.2
				c0.3-0.1,0.6-0.2,0.9-0.2c0.2-0.1,0.5-0.1,0.7-0.2c0.7-0.2,1.5-0.3,2.2-0.4c0.2,0,0.4-0.1,0.6-0.1c0,0,0,0,0.1,0
				c0.4-0.1,0.9-0.1,1.3-0.1h0.1c0.5-0.1,0.9-0.1,1.4-0.1c0.1,0,0.2,0,0.2,0c0.5,0,1.1,0,1.7,0c2.6,0,5.1,0.3,7.5,0.8
				c1.5,0.3,3,0.7,4.4,1.2c11,3.7,19.7,12.4,23.4,23.3l0,0c0.5,1.4,0.9,2.9,1.2,4.4c0.5,2.4,0.8,4.9,0.8,7.5c0,0.6,0,1.1,0,1.7
				C187.8,152.3,187.8,152.4,187.8,152.5z"/>
			<path class="st3" d="M187.9,150.6c0,0.6,0,1.1,0,1.7c0,0.1,0,0.2,0,0.2c0,0.5,0,0.9-0.1,1.4v0.1c0,0.5-0.1,0.9-0.1,1.4
				c-0.2,1.6-0.5,3.2-0.9,4.7c0,0.2-0.1,0.4-0.2,0.7c-0.1,0.3-0.2,0.6-0.3,1c-0.1,0.3-0.2,0.6-0.3,0.9c-0.2,0.6-0.4,1.2-0.6,1.7
				c-0.1,0.3-0.2,0.6-0.3,0.8c-0.1,0.3-0.2,0.6-0.4,0.8c-0.1,0.3-0.2,0.5-0.4,0.8c-0.1,0.3-0.2,0.5-0.4,0.8
				c-1.2,2.4-2.8,4.7-4.5,6.8c-1.5,1.8-3.2,3.5-5,5c-2.3,1.9-4.9,3.6-7.6,4.9c-0.3,0.1-0.5,0.3-0.8,0.4c-0.3,0.1-0.5,0.3-0.8,0.4
				c-0.3,0.1-0.6,0.2-0.8,0.3c-0.6,0.2-1.1,0.4-1.7,0.6c-0.3,0.1-0.6,0.2-0.9,0.3s-0.6,0.2-0.9,0.3s-0.6,0.2-0.8,0.2
				c-1.3,0.3-2.6,0.6-3.9,0.8c-0.2,0-0.4,0.1-0.7,0.1l0,0c-0.5,0.1-0.9,0.1-1.3,0.2h-0.1c-0.5,0-0.9,0.1-1.4,0.1c-0.1,0-0.2,0-0.2,0
				c-0.5,0-1.1,0-1.7,0c-2.6,0-5.1-0.3-7.5-0.8c-14.5-3-26-14.5-29-29c-0.5-2.4-0.8-4.9-0.8-7.5c0-0.6,0-1.1,0-1.7
				c0-0.1,0-0.2,0-0.2c0-0.5,0-0.9,0.1-1.4v-0.1c0-0.5,0.1-0.9,0.2-1.3l0,0c0-0.2,0-0.4,0.1-0.7c0.2-1.3,0.5-2.6,0.8-3.9
				c0.1-0.3,0.1-0.6,0.2-0.8c0.1-0.3,0.2-0.6,0.3-0.9c0.1-0.3,0.2-0.6,0.3-0.9c0.2-0.6,0.4-1.1,0.6-1.7c1.5-3.7,3.5-7.1,6-10.1
				c1.5-1.8,3.2-3.5,5-5c3-2.5,6.4-4.5,10.1-6c0.6-0.2,1.1-0.4,1.7-0.6c0.6-0.2,1.2-0.4,1.8-0.5c0.3-0.1,0.6-0.2,0.8-0.2
				c0.3-0.1,0.6-0.2,0.9-0.2c0.2-0.1,0.5-0.1,0.7-0.2c0.7-0.2,1.5-0.3,2.2-0.4c0.2,0,0.4-0.1,0.6-0.1c0,0,0,0,0.1,0
				c0.4-0.1,0.9-0.1,1.3-0.1h0.1c0.5-0.1,0.9-0.1,1.4-0.1c0.1,0,0.2,0,0.2,0c0.5,0,1.1,0,1.7,0c2.6,0,5.1,0.3,7.5,0.8
				c1.5,0.3,3,0.7,4.4,1.2c11,3.7,19.6,12.4,23.4,23.3l0,0c0.5,1.4,0.9,2.9,1.2,4.4C187.6,145.5,187.9,148,187.9,150.6z"/>
		</g>
		<g>
			<path d="M130.5,161.6c-6.7,0-12-5.5-12-12.2c0-6.6,5.3-12.1,11.9-12.1c3.9,0,7.3,1.8,9.2,4.5l-4.2,3c-1-1.3-2.9-2.3-5-2.3
				c-3.4,0-6.7,3.2-6.7,6.9s3.4,6.9,6.8,6.9c2.3,0,3.5-0.4,4.6-1.2v-2.9h-5.6v-4.7h10.3v10.2C138,160.2,134.6,161.6,130.5,161.6z"/>
			<path d="M156.5,156h-7v5.2h-5.2v-15c0-5.7,4.1-8.9,8.7-8.9c4.5,0,8.7,3.2,8.7,8.9v15h-5.2V156z M156.5,150.8v-4.3
				c0-2.6-1.5-4-3.5-4c-2.1,0-3.5,1.4-3.5,4v4.3H156.5z"/>
			<path d="M170.7,144c0,0.8,0.4,1.4,3.2,2.5c3.8,1.4,7.6,3.6,7.6,7.9c0,3.7-3,7.2-7.7,7.2c-3.9,0-6.7-1.7-9-5.3l3.7-2.9
				c1.1,1.6,3.1,3.2,5.3,3.1c1.4-0.1,2.3-0.9,2.3-1.9s-1.9-2.4-4.5-3.4c-3.5-1.3-6.1-3.3-6.1-7.3c0-3.1,2.7-6.5,7.2-6.5
				c2.5,0,5.3,0.2,8.5,3.9l-4,3c-1.8-1.7-3.2-1.9-4.5-1.9C171.7,142.4,170.7,143.2,170.7,144z"/>
		</g>
	</g>
	<g>
		<path class="st0" d="M251,190c22,0,39.9-17.9,39.9-39.9S273,110.2,251,110.2s-39.9,17.9-39.9,39.9C211,172.1,229,190,251,190z"/>
		<g>
			<rect x="230.2" y="156.3" class="st2" width="52" height="8.5"/>
			<rect x="226.2" y="156.3" class="st2" width="2.5" height="8.5"/>
			<rect x="221.8" y="156.3" class="st2" width="2.5" height="8.5"/>
			<path class="st2" d="M226.4,154.7c-0.1-6.5,2.2-8,5.4-8c1.1,0,2.2,0.1,3.4,0.3c2.7,0.4,5.7,0.8,7.6-1.4c0.9-1,0.4-2.8-0.2-4.5
				c-0.7-2.2-1.3-4.4,0.2-6.2c1.5-1.7,3.7-1.6,5.9-1.6c1.8,0.1,3.7,0.1,4.4-1.1c0.2-0.3,0.3-0.8,0.3-1.3c0-0.7-0.2-1.6-0.6-2.4
				c-0.4-0.8-1.1-1.5-1.9-2c-0.8-0.5-1.7-0.8-2.9-0.8v-2.4c1.6,0,3,0.4,4.2,1.1c1.2,0.8,2.1,1.8,2.8,3c0.6,1.1,0.9,2.4,0.9,3.5
				c0,1-0.2,1.8-0.6,2.6c-1.5,2.4-4,2.3-6.5,2.2c-1.7,0-3.3-0.1-4,0.8c-0.7,0.8-0.2,2.3,0.3,3.9c0.7,2.3,1.4,4.7-0.3,6.8
				c-2.8,3.2-6.5,2.7-9.8,2.2c-1.1-0.2-2.2-0.3-3-0.3c-1.9,0-3.2,1.1-3.1,5.6H226.4z"/>
			<path class="st2" d="M221.7,154.6c0-3.4,0-5.6,0.4-7.3c0.5-1.9,1.3-3.1,2.9-4.3c1.1-0.8,2.6-1.2,4.2-1.5c2-0.4,4.3-0.9,4.9-2.4
				c0.3-0.8-0.2-1.9-0.7-3.1c-1-2.1-2-4.4-0.5-7.1c1.1-1.8,2.4-2.8,4.4-3.3c1.8-0.5,4-0.5,7-0.5v2.4c-2.8,0-4.8,0-6.4,0.5
				c-1.3,0.4-2.3,1-3,2.2c-0.9,1.6-0.1,3.3,0.6,4.9c0.8,1.7,1.5,3.4,0.7,5.1c-1.2,2.6-4,3.2-6.6,3.7c-1.4,0.3-2.6,0.6-3.2,1
				c-1.1,0.9-1.7,1.7-2,3c-0.4,1.5-0.4,3.5-0.4,6.7L221.7,154.6L221.7,154.6z"/>
		</g>
		<path class="st1" d="M251,104.4c-25.2,0-45.7,20.5-45.7,45.7s20.5,45.7,45.7,45.7s45.7-20.5,45.7-45.7S276.2,104.4,251,104.4
			L251,104.4z M227.2,121.4c6.4-5.3,14.7-8.5,23.7-8.5c20.6,0,37.2,16.7,37.2,37.2c0,9-3.2,17.3-8.5,23.7L227.2,121.4L227.2,121.4z
			 M274.7,178.8c-6.4,5.3-14.7,8.5-23.7,8.5c-20.6,0-37.2-16.7-37.2-37.2c0-9,3.2-17.3,8.5-23.7L274.7,178.8z"/>
	</g>
</g>
</svg>
