<?xml version="1.0" encoding="utf-8"?>
<!-- Generator: Adobe Illustrator 27.0.0, SVG Export Plug-In . SVG Version: 6.00 Build 0)  -->
<svg version="1.1" id="Layer_1" xmlns="http://www.w3.org/2000/svg" xmlns:xlink="http://www.w3.org/1999/xlink" x="0px" y="0px"
	 viewBox="0 0 172.7 118.1" style="enable-background:new 0 0 172.7 118.1;" xml:space="preserve">
<style type="text/css">
	.st0{fill-rule:evenodd;clip-rule:evenodd;fill:#FEFEFE;stroke:#FEFEFE;stroke-width:0.5669;stroke-miterlimit:22.9256;}
	.st1{fill-rule:evenodd;clip-rule:evenodd;fill:#F50000;}
	.st2{fill-rule:evenodd;clip-rule:evenodd;}
	.st3{fill-rule:evenodd;clip-rule:evenodd;fill:#FEFEFE;}
	.st4{fill:#FFFFFF;}
	.st5{display:none;}
	
		.st6{display:inline;fill-rule:evenodd;clip-rule:evenodd;fill:#FEFEFE;stroke:#FEFEFE;stroke-width:0.5669;stroke-miterlimit:22.9256;}
	.st7{display:inline;}
	.st8{display:inline;fill-rule:evenodd;clip-rule:evenodd;fill:#F50000;}
</style>
<g id="Направляющие_для_монтажной_области">
</g>
<g id="Слой_1">
	<g>
		<path class="st0" d="M87.7,51c12.6,0,22.8-10.2,22.8-22.8S100.3,5.3,87.7,5.3S64.9,15.5,64.9,28.1C64.8,40.7,75.1,51,87.7,51z"/>
		<g id="_x33_62bG4.tif">
			<g>
				<path d="M97.1,19.6c0,7.4,0,14.9,0,22.4c0,0.1,0,0.1,0,0.1c-0.1,0.7-0.4,1.4-1,1.9c-0.6,0.6-1.4,0.9-2.2,0.9c-4,0-8,0-12,0
					c-0.2,0-0.5,0-0.7,0c-0.6-0.1-1.1-0.2-1.6-0.6c-0.9-0.6-1.3-1.5-1.3-2.6c0-7.3,0-14.5,0-21.8c0-0.3,0.1-0.6,0.1-0.9
					c0.3-1.3,1.5-2.3,2.9-2.3c0.5,0,1,0,1.5,0c0.1,0,0.1,0,0.1,0c0-0.1,0-0.1,0-0.1c0-0.5,0-1,0-1.4c0-0.6,0.3-1.1,0.9-1.4
					c0.2-0.1,0.3-0.1,0.6-0.2c2.1,0,4.3,0,6.4,0h0.1c0.7,0.1,1.4,0.7,1.4,1.6c0,0.5,0,0.9,0,1.4c0,0.1,0,0.1,0,0.1
					c0.1,0,0.1,0,0.2,0c0.5,0,0.9,0,1.4,0c0.2,0,0.5,0,0.7,0.1c1.3,0.3,2.1,1.1,2.4,2.3C97.1,19.3,97.1,19.4,97.1,19.6z M87.7,23
					L87.7,23c-1.6,3.1-3.1,6.2-4.7,9.3c1.6,0,3.1,0,4.7,0c0,2.1,0,4.1,0,6.2l0,0c1.5-3.1,3.1-6.2,4.7-9.3c-1.6,0-3.1,0-4.7,0
					C87.7,27.2,87.7,25.1,87.7,23z"/>
			</g>
		</g>
		<path class="st1" d="M87.7,1.9c-14.4,0-26.2,11.7-26.2,26.2s11.7,26.2,26.2,26.2s26.2-11.7,26.2-26.2S102.1,1.9,87.7,1.9L87.7,1.9
			z M74.1,11.7c3.7-3,8.4-4.9,13.6-4.9c11.8,0,21.3,9.6,21.3,21.3c0,5.2-1.8,9.9-4.9,13.6L74.1,11.7L74.1,11.7z M101.3,44.6
			c-3.7,3-8.4,4.9-13.6,4.9c-11.8,0-21.3-9.6-21.3-21.3c0-5.2,1.8-9.9,4.9-13.6L101.3,44.6z"/>
	</g>
	<g>
		<path class="st0" d="M30.2,51C42.8,51,53,40.7,53,28.1S42.8,5.3,30.2,5.3S7.3,15.5,7.3,28.1S17.6,51,30.2,51z"/>
		<g>
			<path class="st2" d="M29.9,37.1c-1.9-0.6-3.8-1.1-5.7-1.7c-0.4-0.6-1-1.6-1.3-1.9c-1.8-2.7-3.1-6.8-1.6-9.9
				c0.8-1.7,3.3-3.6,5-5.8c0.3-0.4,0.6-0.9,0.8-1.3c0.6-1.1,1.4-3.1,1.4-4.8c-0.1-1.4-0.4-1.3-0.8-2.1c6.1,2.2,8.8,7.6,7.2,13.7
				c-0.2,0.6-1,2.3-2,3.9C29.9,32,29.2,31.4,29.9,37.1z"/>
			<path class="st2" d="M31.4,33.2c0.9-3.2,3.1-3.6,4.6-7.8c0.4-1.1,0.5-2.8,0.5-4c5.2,4.4,2.9,9.2,0.2,13.9
				c-1.8,0.6-3.6,1.1-5.3,1.8C31.2,35.9,31.1,34.4,31.4,33.2z"/>
			<polygon class="st2" points="40.2,40.5 20,35.5 20,39.9 40.2,44.8 			"/>
			<polygon class="st2" points="30.4,42.9 22.4,40.9 20,41.5 20,45.4 			"/>
			<polygon class="st2" points="31.8,37.8 39.8,39.8 40.2,39.7 40.2,35.8 			"/>
		</g>
		<path class="st1" d="M30.2,1.9C15.7,1.9,4,13.7,4,28.1s11.7,26.2,26.2,26.2s26.2-11.7,26.2-26.2C56.3,13.7,44.6,1.9,30.2,1.9
			L30.2,1.9z M16.5,11.7c3.7-3,8.4-4.9,13.6-4.9c11.8,0,21.3,9.6,21.3,21.3c0,5.2-1.8,9.9-4.9,13.6L16.5,11.7L16.5,11.7z M43.7,44.6
			c-3.7,3-8.4,4.9-13.6,4.9c-11.8,0-21.3-9.6-21.3-21.3c0-5.2,1.8-9.9,4.9-13.6L43.7,44.6z"/>
	</g>
	<g>
		<path class="st0" d="M145,51c12.6,0,22.8-10.2,22.8-22.8S157.6,5.3,145,5.3s-22.8,10.2-22.8,22.8C122.1,40.7,132.4,51,145,51z"/>
		<g id="ygbiya_00000162350525464099446440000017509663260182675382_">
			<g>
				<path d="M136.2,32.6c0-3.4,0-6.9,0-10.3c0-0.4,0.2-0.6,0.6-0.6c3.1,0,6.2,0,9.4,0c0.4,0,0.6,0.2,0.6,0.6c0,6.9,0,13.7,0,20.6
					c0,0.5-0.2,0.6-0.6,0.6c-3.1,0-6.2,0-9.4,0c-0.4,0-0.6-0.2-0.6-0.6C136.2,39.5,136.2,36,136.2,32.6z"/>
				<path d="M137.4,21c0.2-0.3,0.4-0.6,0.7-0.9c0.7-0.7,1.6-1.1,2.6-1.3c1.2-0.2,2.3,0.1,3.4,0.7c0.5,0.3,1,0.8,1.3,1.3
					c0,0.1,0.1,0.1,0.1,0.1C142.7,21,140.1,21,137.4,21z"/>
				<path d="M155.2,10.5c0,0.1-0.1,0.2-0.2,0.2c-0.6,0.3-1.3,0.6-1.8,0.9c-2.9,1.3-5.7,2.6-8.5,4c0,0-0.1,0-0.1,0.1
					c-0.1,0.1-0.2,0-0.3-0.1s0-0.2,0.1-0.3c0.5-0.2,1-0.5,1.5-0.7c3-1.4,5.9-2.7,8.9-4.1c0.1,0,0.1-0.1,0.2-0.1
					C155.1,10.2,155.2,10.3,155.2,10.5z"/>
				<path d="M144.4,16.4c-0.1,0-0.2-0.1-0.2-0.2s0.1-0.2,0.2-0.2c0.2-0.1,0.5-0.1,0.7-0.2c3.5-0.7,7-1.5,10.5-2.3
					c0.2-0.1,0.3,0,0.4,0.2s-0.1,0.2-0.3,0.3c-3.7,0.8-7.4,1.7-11.2,2.5C144.5,16.4,144.4,16.4,144.4,16.4z"/>
				<path d="M144.4,17.7c0.2,0.1,0.5,0.1,0.8,0.2c3.5,0.7,7,1.5,10.5,2.3h0.1c0.2,0.1,0.2,0.2,0.2,0.3c-0.1,0.1-0.1,0.2-0.3,0.2
					c-0.4-0.1-0.9-0.2-1.3-0.3c-3.3-0.7-6.6-1.4-9.9-2.2c-0.1,0-0.1,0-0.1-0.1c-0.1-0.1-0.2-0.1-0.2-0.2S144.3,17.7,144.4,17.7z"/>
				<path d="M150.2,17.3c-1.9,0-3.8,0-5.7,0c-0.1,0-0.2,0-0.2-0.1c-0.1-0.2,0-0.3,0.2-0.3s0.4,0,0.6,0c1.8,0,3.6,0,5.3,0
					c1.9,0,3.7,0,5.6,0c0.2,0,0.3,0.1,0.3,0.2s-0.1,0.2-0.3,0.2c-0.6,0-1.3,0-1.8,0C152.8,17.3,151.4,17.3,150.2,17.3L150.2,17.3z"
					/>
				<path d="M142.2,17.5c0,0.3,0,0.6,0,0.8c-0.6,0-1.1,0-1.7,0c0-0.8,0-1.7,0-2.5c0.6,0,1.1,0,1.6,0c0,0.3,0,0.7,0,1
					c-0.2,0.1-0.5,0.1-0.5,0.3C141.8,17.4,142.1,17.4,142.2,17.5z"/>
			</g>
		</g>
		<path class="st1" d="M145,1.9c-14.4,0-26.2,11.7-26.2,26.2s11.7,26.2,26.2,26.2c14.4,0,26.2-11.7,26.2-26.2S159.4,1.9,145,1.9
			L145,1.9z M131.4,11.7c3.7-3,8.4-4.9,13.6-4.9c11.8,0,21.3,9.6,21.3,21.3c0,5.2-1.8,9.9-4.9,13.6L131.4,11.7L131.4,11.7z
			 M158.6,44.6c-3.7,3-8.4,4.9-13.6,4.9c-11.8,0-21.3-9.6-21.3-21.3c0-5.2,1.8-9.9,4.9-13.6L158.6,44.6z"/>
	</g>
	<g>
		<path class="st0" d="M31,107.8c12.6,0,22.8-10.2,22.8-22.8S43.6,62,31,62S8.2,72.3,8.2,84.9S18.4,107.8,31,107.8z"/>
		<g>
			<path class="st2" d="M28.7,67.8c4.4,0.2,8.8,1.3,13.2,3.7c0.8,0.5,1.4,1.1,1.2,1.9l-7.3,25.8c-0.2,0.8-1.1,1.3-2.1,1l-13.2-3.7
				c-0.9-0.2-1.4-1.1-1.2-1.9l7.3-25.8C26.9,68,27.8,67.8,28.7,67.8z"/>
			<path class="st3" d="M25.6,83.3L28,84c0.3,0.1,0.5,0.3,0.4,0.5l-0.3,1.1c-0.1,0.2-0.3,0.3-0.6,0.2l-2.4-0.7
				c-0.3-0.1-0.5-0.3-0.4-0.5l0.3-1.1C25.1,83.4,25.4,83.3,25.6,83.3z"/>
			<path class="st3" d="M29.9,84.5l2.4,0.7c0.3,0.1,0.5,0.3,0.4,0.5l-0.3,1.1c-0.1,0.2-0.3,0.3-0.6,0.2l-2.4-0.7
				c-0.3-0.1-0.5-0.3-0.4-0.5l0.3-1.1C29.3,84.5,29.6,84.4,29.9,84.5z"/>
			<path class="st3" d="M34.1,85.7l2.4,0.7c0.3,0.1,0.5,0.3,0.4,0.5L36.6,88c-0.1,0.2-0.3,0.3-0.6,0.2l-2.4-0.7
				c-0.3-0.1-0.5-0.3-0.4-0.5l0.3-1.1C33.5,85.8,33.8,85.6,34.1,85.7z"/>
			<path class="st3" d="M24.7,86.6l2.4,0.7c0.3,0.1,0.5,0.3,0.4,0.5l-0.3,1.1c-0.1,0.2-0.3,0.3-0.6,0.2l-2.4-0.7
				c-0.3-0.1-0.5-0.3-0.4-0.5l0.3-1.1C24.2,86.6,24.4,86.5,24.7,86.6z"/>
			<path class="st3" d="M29,87.8l2.4,0.7c0.3,0.1,0.5,0.3,0.4,0.5l-0.3,1.1c-0.1,0.2-0.3,0.3-0.6,0.2l-2.4-0.7
				c-0.3-0.1-0.5-0.3-0.4-0.5l0.3-1.1C28.4,87.8,28.7,87.7,29,87.8z"/>
			<path class="st3" d="M33.1,89l2.4,0.7c0.3,0.1,0.5,0.3,0.4,0.5l-0.3,1.1c-0.1,0.2-0.3,0.3-0.6,0.2l-2.4-0.7
				c-0.3-0.1-0.5-0.3-0.4-0.5l0.3-1.1C32.6,89,32.9,88.8,33.1,89z"/>
			<path class="st3" d="M23.8,89.8l2.4,0.7c0.3,0.1,0.5,0.3,0.4,0.5l-0.3,1.1c-0.1,0.2-0.3,0.3-0.6,0.2l-2.4-0.7
				c-0.3-0.1-0.5-0.3-0.4-0.5l0.3-1.1C23.3,89.8,23.5,89.7,23.8,89.8z"/>
			<path class="st3" d="M28.1,91l2.4,0.7c0.3,0.1,0.5,0.3,0.4,0.5l-0.3,1.1c-0.1,0.2-0.3,0.3-0.6,0.2l-2.4-0.7
				c-0.3-0.1-0.5-0.3-0.4-0.5l0.3-1.1C27.5,91,27.8,90.9,28.1,91z"/>
			<path class="st3" d="M32.3,92.2l2.4,0.7c0.3,0.1,0.5,0.3,0.4,0.5l-0.3,1.1c-0.1,0.2-0.3,0.3-0.6,0.2L31.8,94
				c-0.3-0.1-0.5-0.3-0.4-0.5l0.3-1.1C31.7,92.2,32,92.1,32.3,92.2z"/>
			<path class="st3" d="M23,93l2.4,0.7c0.3,0.1,0.5,0.3,0.4,0.5l-0.3,1.1c-0.1,0.2-0.3,0.3-0.6,0.2l-2.4-0.7
				c-0.3-0.1-0.5-0.3-0.4-0.5l0.3-1.1C22.4,93,22.7,93,23,93z"/>
			<path class="st3" d="M27.1,94.2l2.4,0.7c0.3,0.1,0.5,0.3,0.4,0.5l-0.3,1.1c-0.1,0.2-0.3,0.3-0.6,0.2L26.6,96
				c-0.3-0.1-0.5-0.3-0.4-0.5l0.3-1.1C26.6,94.2,26.8,94.1,27.1,94.2z"/>
			<path class="st3" d="M31.4,95.4l2.4,0.7c0.3,0.1,0.5,0.3,0.4,0.5l-0.3,1.1c-0.1,0.2-0.3,0.3-0.6,0.2l-2.4-0.7
				c-0.3-0.1-0.5-0.3-0.4-0.5l0.3-1.1C30.8,95.4,31.1,95.3,31.4,95.4z"/>
			<path class="st3" d="M30,70l9.6,2.7c0.6,0.2,1,0.9,0.9,1.5L37.7,84c-0.2,0.6-0.9,1-1.5,0.9l-9.6-2.7c-0.6-0.2-1-0.9-0.9-1.5
				l2.7-9.8C28.7,70.2,29.4,69.8,30,70z"/>
			<path class="st3" d="M34.1,69.4l2.5,0.7c0.2,0.1,0.2,0.2,0.2,0.4l0,0c-0.1,0.2-0.2,0.2-0.4,0.2L33.9,70c-0.2-0.1-0.2-0.2-0.2-0.4
				l0,0C33.7,69.4,33.9,69.4,34.1,69.4z"/>
		</g>
		<path class="st1" d="M31,58.7c-14.4,0-26.2,11.7-26.2,26.2s11.7,26.2,26.2,26.2s26.2-11.7,26.2-26.2S45.5,58.7,31,58.7L31,58.7z
			 M17.4,68.5c3.7-3,8.4-4.9,13.6-4.9c11.8,0,21.3,9.6,21.3,21.3c0,5.2-1.8,9.9-4.9,13.6L17.4,68.5L17.4,68.5z M44.6,101.3
			c-3.7,3-8.4,4.9-13.6,4.9c-11.8,0-21.3-9.6-21.3-21.3c0-5.2,1.8-9.9,4.9-13.6L44.6,101.3z"/>
	</g>
	<g>
		<path class="st0" d="M144.7,108.8c12.6,0,22.8-10.2,22.8-22.8s-10.2-22.9-22.8-22.9c-12.6,0-22.8,10.2-22.8,22.8
			C121.8,98.5,132.1,108.8,144.7,108.8z"/>
		<g id="KyeP1G.tif">
			<g>
				<path d="M141,97.2c0.5,0.3,0.9,0.6,1.3,0.9c-1.7,2.1-3.8,3.1-6.5,2.7c-2.8-0.4-4.8-2-5.6-4.7c-0.9-2.8-0.1-5.2,2-7.3
					c0.1,0.2,0.2,0.3,0.2,0.5c0.3,0.7,0.7,1.5,1.1,2.3c0.2,0.3,0.5,0.5,0.9,0.4c0.5-0.2,0.9-0.3,1.4-0.5c0.2-0.1,0.2-0.1,0.3,0.1
					c0.1,0.2,0.2,0.3,0.3,0.5c0.3,0.7,0.9,1.1,1.7,1.3c0.5,0.1,0.9,0.1,1.4,0.1c0.2,0,0.3,0.1,0.5,0.3c0.4,0.7,0.9,1.5,1.3,2.2
					c0.1,0.2,0.1,0.3,0,0.5C141.2,96.7,141.1,96.8,141,97.2z M135.6,92.6c-0.1,0.1-0.2,0.1-0.3,0.1c-0.7,0.3-1.3,0.3-2,0.1
					c-0.2-0.1-0.4-0.2-0.5-0.5c-0.2-0.5-0.5-1-0.7-1.5c-1.6,2.3-1.3,5.9,1.4,7.8c2.5,1.8,5.7,1.1,7.1-0.4c-0.3-0.2-0.6-0.4-0.9-0.6
					c0.2-0.4,0.3-0.8,0.5-1.1c0.1-0.1,0.1-0.3,0-0.3c-0.2-0.5-0.5-0.9-0.8-1.4c-0.1-0.1-0.2-0.2-0.2-0.2c-0.9,0.1-1.7-0.3-2.5-0.6
					c-0.2-0.1-0.3-0.2-0.4-0.3C136,93.2,135.8,93,135.6,92.6z"/>
				<path d="M141.7,88.5c-0.3-0.4-0.6-0.8-0.8-1.2c-0.1-0.1,0-0.3,0.1-0.4c1.3-3,2.6-5.9,3.8-8.9c0.9-2.1,1.8-4.2,2.7-6.3
					c0.1-0.1,0.1-0.2,0.2-0.3c0.3,0.2,0.7,0.3,1,0.5c-1.9,4.5-3.9,9-5.8,13.5l0.1,0.1c2.1-2.3,4.1-4.7,6.1-7c0,0,0.1,0,0.1,0.1
					c-0.1,0.7-0.3,1.4-0.4,2c0,0.1-0.1,0.2-0.2,0.3c-2.2,2.6-4.5,5.2-6.8,7.8C141.7,88.5,141.7,88.5,141.7,88.5z"/>
				<path d="M143.5,91.2c-0.2-0.3-0.3-0.5-0.5-0.8c0.1-0.1,0.1-0.2,0.2-0.2c2.6-2.6,5.1-5.3,7.7-8c0.2-0.2,0.3-0.2,0.5-0.2
					c0.3,0.1,0.6,0.1,1.1,0.2c-1.9,2-3.8,4-5.8,6c0,0,0,0.1,0.1,0.1c4.1-2.1,8.1-4.2,12.2-6.3c0.2,0.3,0.3,0.7,0.5,1
					C154,85.8,148.7,88.5,143.5,91.2z"/>
				<path d="M133.7,83.4c0.1-1,0.2-1.9,0.3-2.9c0.3,0.3,0.7,0.7,1,1c0.1,0.1,0.1,0.2,0.1,0.2c-0.3,2.5-0.6,5-0.9,7.6
					c0,0.1,0,0.1-0.1,0.2c-1.6-6-3.1-11.8-4.8-17.6c0.3-0.1,0.7-0.2,1.1-0.3c0.2,0.7,0.4,1.4,0.6,2.1c0.3,1.3,0.7,2.6,1.1,4
					c0,0.1,0.1,0.1,0.1,0.2c0,1,0.6,1.7,0.7,2.6c0.2,0.9,0.5,1.8,0.7,2.7C133.6,83.2,133.6,83.2,133.7,83.4z"/>
				<path d="M143,94.1c5.2-2.5,10.5-5,15.7-7.5c0.2,0.3,0.3,0.7,0.5,1c-3.4,1.6-6.7,3.2-10.1,4.8v0.1c0.5-0.1,1-0.1,1.5-0.1v0.1
					c-0.3,0.2-0.7,0.3-1,0.6c-0.9,0.6-1.8,0.8-2.8,0.9c-1.1,0.1-2.2,0.2-3.3,0.3c-0.2,0-0.4,0-0.6,0.1C143,94.1,143,94.1,143,94.1z"
					/>
				<path d="M153,97.2c-0.7,0-1.5,0-2.2,0v0.1c2.8,0.9,5.6,1.9,8.4,2.8c-0.1,0.3-0.2,0.7-0.3,1.1c-5-1.7-10.1-3.4-15.1-5v-0.1
					c0.1,0,0.2,0,0.3,0c2.5,0,5,0,7.4,0c0.2,0,0.3,0.1,0.5,0.2C152.4,96.7,152.7,96.9,153,97.2C153,97.2,153,97.2,153,97.2z"/>
				<path d="M156.1,90.6c0,0.2,0,0.3,0,0.4c0,1.1,0,2.2,0,3.3c0,0.2-0.1,0.4-0.2,0.6c-0.5,0.7-0.9,1.4-1.4,2.1
					c-1.3-1.1-2.6-2.1-4-3.2C152.4,92.8,154.2,91.7,156.1,90.6z M154.2,95.2c0.9-0.7,0.8-1.7,0.7-2.7c-0.8,0.5-1.6,0.9-2.4,1.4
					C153.2,94.5,153.7,94.8,154.2,95.2z"/>
				<path d="M153.8,76.1c0.2,1.8,0.5,3.6,0.7,5.4c-1.6-0.3-3.1-0.5-4.8-0.8c0.1-0.5,0.2-1,0.3-1.4c0.1-0.7,0.3-1.4,0.5-2.1
					c0-0.1,0.1-0.2,0.2-0.3C151.7,76.6,152.7,76.4,153.8,76.1z M153.2,80.1c-0.1-0.9-0.2-1.7-0.4-2.6c-0.2,0.1-0.4,0.1-0.6,0.1
					c-0.6,0.1-0.9,0.3-0.9,1c0,0.4-0.1,0.7-0.2,1.1C151.8,79.9,152.5,80,153.2,80.1z"/>
				<path d="M136,80.8c-0.9-0.9-1.8-1.8-2.6-2.6c-0.1-0.1-0.1-0.2-0.1-0.2c0-0.9,0-1.8,0-2.8c1.1-0.3,2.3-0.6,3.6-0.9
					C136.5,76.6,136.3,78.7,136,80.8z M134.5,76.1c0,0.3,0.1,0.7,0,1.1c-0.1,0.6,0.3,0.9,0.7,1.3c0.1-0.9,0.2-1.7,0.3-2.6
					C135.1,75.9,134.8,76,134.5,76.1z"/>
				<path d="M137,89.4c0.3-3.1,0.5-6.1,0.7-9.2h0.1c0.2,0.5,0.3,1,0.5,1.4c0.3,0.8,0.6,1.7,0.8,2.5c0.1,0.1,0.1,0.3,0,0.4
					c-0.6,1.5-1.3,3-2,4.6C137.1,89.2,137.1,89.2,137,89.4z"/>
				<path d="M138.4,71.6c0.4,0.1,0.7,0.1,1.1,0.1c-0.1,0.5-0.1,0.9-0.1,1.3c-0.2,1.8-0.3,3.6-0.5,5.4c0,0.1-0.1,0.2-0.2,0.2
					c-0.3,0.1-0.6,0.2-1,0.3C138,76.6,138.3,74.1,138.4,71.6z"/>
				<path d="M143.6,71.5c0.3,0.2,0.7,0.3,1,0.5c-0.2,0.5-0.4,0.9-0.6,1.4c-0.6,1.4-1.2,2.7-1.8,4.1c-0.1,0.1-0.2,0.3-0.3,0.3
					c-0.3,0.2-0.7,0.2-1.2,0.4C141.7,75.8,142.7,73.6,143.6,71.5z"/>
				<path d="M140.3,88.5c0.6,0.8,1.1,1.7,1.7,2.6c-0.4,0.4-0.8,0.8-1.3,1.3c-0.9-0.6-1.7-1.1-2.6-1.7
					C138.9,90,139.6,89.2,140.3,88.5z"/>
				<path d="M138.9,79.9c1-0.3,2-0.7,3-1c0,0.7,0,1.4,0,2.1c0,0.1-0.1,0.2-0.1,0.2c-0.6,0.6-1.2,1.2-1.9,1.9
					C139.6,81.9,139.2,80.9,138.9,79.9z"/>
				<path d="M155.4,79.1c-0.1-0.5-0.1-0.9-0.2-1.2c0-0.1,0-0.2,0.1-0.3c1.1-1.1,2.2-2.3,3.3-3.4c0,0,0.1,0,0.1-0.1
					c0.2,0.3,0.5,0.5,0.7,0.8C158.1,76.2,156.8,77.7,155.4,79.1z"/>
				<path d="M155.1,71.2c0.3,0.2,0.6,0.5,0.9,0.7c-0.3,0.4-0.7,0.9-1.1,1.3c-0.5,0.5-0.9,1-1.3,1.5c-0.1,0.1-0.2,0.2-0.2,0.2
					c-0.6,0.2-1.1,0.3-1.8,0.5C152.7,74,153.9,72.7,155.1,71.2z"/>
				<path d="M159,96.2c0,0.4,0,0.7,0,1.1c-1.1,0-2.1,0-3.3,0c0.2-0.4,0.5-0.7,0.7-1c0-0.1,0.1-0.1,0.2-0.1
					C157.4,96.2,158.2,96.2,159,96.2z"/>
				<path d="M135,71.6c0.4,0.1,0.7,0.1,1.1,0.1c-0.1,0.5-0.1,1-0.2,1.5c0,0.1-0.1,0.1-0.2,0.1c-0.3,0.1-0.6,0.2-1,0.3
					C134.9,72.9,134.9,72.2,135,71.6z"/>
				<path d="M157.3,92.8c0-0.4,0-0.7,0-1.1c0.5-0.1,1.1-0.1,1.7-0.2c0.1,0.4,0.1,0.7,0.1,1.1C158.5,92.8,157.9,92.8,157.3,92.8z"/>
				<path class="st4" d="M152.6,94c0.8-0.5,1.6-0.9,2.4-1.4"/>
			</g>
		</g>
		<path class="st1" d="M144.7,59.8c-14.4,0-26.1,11.7-26.1,26.1s11.7,26.2,26.2,26.2c14.4,0,26.2-11.7,26.2-26.2
			S159.2,59.8,144.7,59.8L144.7,59.8z M131.1,69.5c3.7-3,8.4-4.9,13.6-4.9c11.8,0,21.3,9.6,21.3,21.3c0,5.2-1.8,9.9-4.9,13.6
			L131.1,69.5L131.1,69.5z M158.3,102.3c-3.7,3-8.4,4.9-13.6,4.9c-11.8,0-21.3-9.6-21.3-21.3c0-5.2,1.8-9.9,4.9-13.6L158.3,102.3z"
			/>
	</g>
	<g>
		<g>
			<path class="st1" d="M87.9,58.6c-14.4,0-26.2,11.7-26.2,26.2c0,14.4,11.7,26.2,26.2,26.2s26.2-11.7,26.2-26.2
				C114.1,70.2,102.4,58.6,87.9,58.6z M109.2,85.8c0,0.3,0,0.5-0.1,0.8v0.1c0,0.3-0.1,0.5-0.1,0.8c-0.1,0.9-0.3,1.8-0.5,2.7
				c0,0.1-0.1,0.2-0.1,0.4c-0.1,0.2-0.1,0.3-0.2,0.6c-0.1,0.2-0.1,0.3-0.2,0.5c-0.1,0.3-0.2,0.7-0.3,1c-0.1,0.2-0.1,0.3-0.2,0.5
				s-0.1,0.3-0.2,0.5s-0.1,0.3-0.2,0.5s-0.1,0.3-0.2,0.5c-0.7,1.4-1.5,2.7-2.6,3.9l0,0c-0.9,1-1.8,2-2.9,2.9l0,0
				c-1.3,1.1-2.8,2-4.4,2.8c-0.2,0.1-0.3,0.2-0.5,0.2c-0.2,0.1-0.3,0.2-0.5,0.2c-0.2,0.1-0.3,0.1-0.5,0.2c-0.3,0.1-0.6,0.2-1,0.3
				c-0.2,0.1-0.3,0.1-0.5,0.2s-0.3,0.1-0.5,0.2s-0.3,0.1-0.5,0.1c-0.7,0.2-1.5,0.3-2.2,0.5c-0.1,0-0.2,0.1-0.4,0.1l0,0
				c-0.3,0.1-0.5,0.1-0.7,0.1h-0.1c-0.3,0-0.5,0.1-0.8,0.1c-0.1,0-0.1,0-0.1,0c-0.3,0-0.6,0-1,0c-1.5,0-2.9-0.2-4.3-0.5
				c-8.3-1.7-14.9-8.2-16.6-16.6c-0.3-1.4-0.5-2.8-0.5-4.3c0-0.3,0-0.6,0-1c0-0.1,0-0.1,0-0.1c0-0.3,0-0.5,0.1-0.8v-0.1
				c0-0.3,0.1-0.5,0.1-0.7l0,0c0-0.1,0-0.2,0.1-0.4c0.1-0.7,0.3-1.5,0.5-2.2c0.1-0.2,0.1-0.3,0.1-0.5c0.1-0.2,0.1-0.3,0.2-0.5
				s0.1-0.3,0.2-0.5c0.1-0.3,0.2-0.7,0.3-1c0.8-2.1,2-4.1,3.4-5.8l0,0c0.9-1,1.8-2,2.9-2.9l0,0c1.7-1.4,3.7-2.6,5.8-3.4
				c0.3-0.1,0.6-0.2,1-0.3c0.3-0.1,0.7-0.2,1-0.3c0.2-0.1,0.3-0.1,0.5-0.1c0.2-0.1,0.3-0.1,0.5-0.1c0.1-0.1,0.3-0.1,0.4-0.1
				c0.4-0.1,0.9-0.2,1.3-0.2c0.1,0,0.2-0.1,0.3-0.1c0,0,0,0,0.1,0c0.2-0.1,0.5-0.1,0.7-0.1h0.1c0.3-0.1,0.5-0.1,0.8-0.1
				c0.1,0,0.1,0,0.1,0c0.3,0,0.6,0,1,0c1.5,0,2.9,0.2,4.3,0.5c0.9,0.2,1.7,0.4,2.5,0.7c6.3,2.1,11.3,7.1,13.4,13.3l0,0
				c0.3,0.8,0.5,1.7,0.7,2.5c0.3,1.4,0.5,2.8,0.5,4.3C109.3,85.2,109.3,85.5,109.2,85.8C109.2,85.7,109.2,85.8,109.2,85.8z"/>
			<path class="st3" d="M109.3,84.7c0,0.3,0,0.6,0,1c0,0.1,0,0.1,0,0.1c0,0.3,0,0.5-0.1,0.8v0.1c0,0.3-0.1,0.5-0.1,0.8
				c-0.1,0.9-0.3,1.8-0.5,2.7c0,0.1-0.1,0.2-0.1,0.4c-0.1,0.2-0.1,0.3-0.2,0.6c-0.1,0.2-0.1,0.3-0.2,0.5c-0.1,0.3-0.2,0.7-0.3,1
				c-0.1,0.2-0.1,0.3-0.2,0.5s-0.1,0.3-0.2,0.5s-0.1,0.3-0.2,0.5s-0.1,0.3-0.2,0.5c-0.7,1.4-1.6,2.7-2.6,3.9c-0.9,1-1.8,2-2.9,2.9
				c-1.3,1.1-2.8,2.1-4.4,2.8c-0.2,0.1-0.3,0.2-0.5,0.2c-0.2,0.1-0.3,0.2-0.5,0.2c-0.2,0.1-0.3,0.1-0.5,0.2c-0.3,0.1-0.6,0.2-1,0.3
				c-0.2,0.1-0.3,0.1-0.5,0.2s-0.3,0.1-0.5,0.2s-0.3,0.1-0.5,0.1c-0.7,0.2-1.5,0.3-2.2,0.5c-0.1,0-0.2,0.1-0.4,0.1l0,0
				c-0.3,0.1-0.5,0.1-0.7,0.1H90c-0.3,0-0.5,0.1-0.8,0.1c-0.1,0-0.1,0-0.1,0c-0.3,0-0.6,0-1,0c-1.5,0-2.9-0.2-4.3-0.5
				c-8.3-1.7-14.9-8.3-16.6-16.6c-0.3-1.4-0.5-2.8-0.5-4.3c0-0.3,0-0.6,0-1c0-0.1,0-0.1,0-0.1c0-0.3,0-0.5,0.1-0.8v-0.1
				c0-0.3,0.1-0.5,0.1-0.7l0,0c0-0.1,0-0.2,0.1-0.4c0.1-0.7,0.3-1.5,0.5-2.2c0.1-0.2,0.1-0.3,0.1-0.5c0.1-0.2,0.1-0.3,0.2-0.5
				s0.1-0.3,0.2-0.5c0.1-0.3,0.2-0.6,0.3-1c0.9-2.1,2-4.1,3.4-5.8c0.9-1,1.8-2,2.9-2.9c1.7-1.4,3.7-2.6,5.8-3.4
				c0.3-0.1,0.6-0.2,1-0.3c0.3-0.1,0.7-0.2,1-0.3c0.2-0.1,0.3-0.1,0.5-0.1c0.2-0.1,0.3-0.1,0.5-0.1c0.1-0.1,0.3-0.1,0.4-0.1
				c0.4-0.1,0.9-0.2,1.3-0.2c0.1,0,0.2-0.1,0.3-0.1c0,0,0,0,0.1,0c0.2-0.1,0.5-0.1,0.7-0.1h0.1c0.3-0.1,0.5-0.1,0.8-0.1
				c0.1,0,0.1,0,0.1,0c0.3,0,0.6,0,1,0c1.5,0,2.9,0.2,4.3,0.5c0.9,0.2,1.7,0.4,2.5,0.7c6.3,2.1,11.2,7.1,13.4,13.3l0,0
				c0.3,0.8,0.5,1.7,0.7,2.5C109.1,81.8,109.3,83.2,109.3,84.7z"/>
		</g>
		<g>
			<path d="M76.4,91c-3.8,0-6.9-3.1-6.9-7c0-3.8,3-6.9,6.8-6.9c2.2,0,4.2,1,5.3,2.6l-2.4,1.7c-0.6-0.7-1.7-1.3-2.9-1.3
				c-1.9,0-3.8,1.8-3.8,4c0,2.1,1.9,4,3.9,4c1.3,0,2-0.2,2.6-0.7v-1.7h-3.2V83h5.9v5.8C80.7,90.2,78.8,91,76.4,91z"/>
			<path d="M91.3,87.8h-4v3h-3v-8.6c0-3.3,2.3-5.1,5-5.1c2.6,0,5,1.8,5,5.1v8.6h-3V87.8z M91.3,84.8v-2.5c0-1.5-0.9-2.3-2-2.3
				c-1.2,0-2,0.8-2,2.3v2.5H91.3z"/>
			<path d="M99.5,80.9c0,0.5,0.2,0.8,1.8,1.4c2.2,0.8,4.4,2.1,4.4,4.5c0,2.1-1.7,4.1-4.4,4.1c-2.2,0-3.8-1-5.2-3l2.1-1.7
				c0.6,0.9,1.8,1.8,3,1.8c0.8-0.1,1.3-0.5,1.3-1.1s-1.1-1.4-2.6-1.9c-2-0.7-3.5-1.9-3.5-4.2c0-1.8,1.5-3.7,4.1-3.7
				c1.4,0,3,0.1,4.9,2.2l-2.3,1.7c-1-1-1.8-1.1-2.6-1.1C100,80,99.5,80.5,99.5,80.9z"/>
		</g>
	</g>
	<g class="st5">
		<path class="st6" d="M145.4,107.3c12.6,0,22.8-10.2,22.8-22.8S158,61.6,145.4,61.6s-22.8,10.2-22.8,22.8
			C122.5,97,132.8,107.3,145.4,107.3z"/>
		<g class="st7">
			<rect x="133.5" y="88" class="st2" width="29.8" height="4.9"/>
			<rect x="131.2" y="88" class="st2" width="1.4" height="4.9"/>
			<rect x="128.7" y="88" class="st2" width="1.4" height="4.9"/>
			<path class="st2" d="M131.4,87.1c-0.1-3.7,1.3-4.6,3.1-4.6c0.6,0,1.3,0.1,1.9,0.2c1.5,0.2,3.3,0.5,4.4-0.8
				c0.5-0.6,0.2-1.6-0.1-2.6c-0.4-1.3-0.7-2.5,0.1-3.6c0.9-1,2.1-0.9,3.4-0.9c1,0.1,2.1,0.1,2.5-0.6c0.1-0.2,0.2-0.5,0.2-0.7
				c0-0.4-0.1-0.9-0.3-1.4s-0.6-0.9-1.1-1.1c-0.5-0.3-1-0.5-1.7-0.5v-1.4c0.9,0,1.7,0.2,2.4,0.6c0.7,0.5,1.2,1,1.6,1.7
				c0.3,0.6,0.5,1.4,0.5,2s-0.1,1-0.3,1.5c-0.9,1.4-2.3,1.3-3.7,1.3c-1,0-1.9-0.1-2.3,0.5c-0.4,0.5-0.1,1.3,0.2,2.2
				c0.4,1.3,0.8,2.7-0.2,3.9c-1.6,1.8-3.7,1.5-5.6,1.3c-0.6-0.1-1.3-0.2-1.7-0.2c-1.1,0-1.8,0.6-1.8,3.2H131.4z"/>
			<path class="st2" d="M128.7,87c0-1.9,0-3.2,0.2-4.2c0.3-1.1,0.7-1.8,1.7-2.5c0.6-0.5,1.5-0.7,2.4-0.9c1.1-0.2,2.5-0.5,2.8-1.4
				c0.2-0.5-0.1-1.1-0.4-1.8c-0.6-1.2-1.1-2.5-0.3-4.1c0.6-1,1.4-1.6,2.5-1.9c1-0.3,2.3-0.3,4-0.3v1.4c-1.6,0-2.7,0-3.7,0.3
				c-0.7,0.2-1.3,0.6-1.7,1.3c-0.5,0.9-0.1,1.9,0.3,2.8c0.5,1,0.9,1.9,0.4,2.9c-0.7,1.5-2.3,1.8-3.8,2.1c-0.8,0.2-1.5,0.3-1.8,0.6
				c-0.6,0.5-1,1-1.1,1.7c-0.2,0.9-0.2,2-0.2,3.8L128.7,87L128.7,87z"/>
		</g>
		<path class="st8" d="M145.4,58.3c-14.4,0-26.2,11.7-26.2,26.2s11.7,26.2,26.2,26.2c14.4,0,26.2-11.7,26.2-26.2
			S159.9,58.3,145.4,58.3L145.4,58.3z M131.8,68c3.7-3,8.4-4.9,13.6-4.9c11.8,0,21.3,9.6,21.3,21.3c0,5.2-1.8,9.9-4.9,13.6L131.8,68
			L131.8,68z M159,100.9c-3.7,3-8.4,4.9-13.6,4.9c-11.8,0-21.3-9.6-21.3-21.3c0-5.2,1.8-9.9,4.9-13.6L159,100.9z"/>
	</g>
</g>
</svg>
