<?xml version="1.0" encoding="utf-8"?>
<!-- Generator: Adobe Illustrator 27.0.0, SVG Export Plug-In . SVG Version: 6.00 Build 0)  -->
<svg version="1.1" id="Layer_1" xmlns="http://www.w3.org/2000/svg" xmlns:xlink="http://www.w3.org/1999/xlink" x="0px" y="0px"
	 viewBox="0 0 172 61" style="enable-background:new 0 0 172 61;" xml:space="preserve">
<style type="text/css">
	.st0{fill:#0B0B0B;}
	.st1{fill:#FFFFFF;}
	.st2{fill:url(#SVGID_1_);}
	.st3{fill:#050606;}
</style>
<g id="Направляющие_для_монтажной_области">
</g>
<g>
	<g id="pmXdcq_00000080166684660838374960000016314642350402266536_">
		<g>
			<path class="st0" d="M51.3,31.3c0,4.2,0.1,8.4-0.1,12.5c-0.1,1.2-0.9,2.7-1.9,3.3c-7.1,4.3-14.4,8.5-21.6,12.5
				c-0.9,0.5-2.4,0.5-3.3,0C17,55.5,9.6,51.3,2.3,46.9c-0.8-0.5-1.5-1.7-1.5-2.6c-0.1-8.6-0.1-17.1,0-25.6c0-1,0.8-2.3,1.6-2.8
				C9.6,11.5,16.8,7.4,24,3.2c1.4-0.8,2.4-0.9,3.9-0.1c7.3,4.3,14.6,8.4,21.9,12.8c0.8,0.5,1.5,1.7,1.5,2.6
				C51.4,22.7,51.3,27,51.3,31.3z M50.3,31.4L50.3,31.4c0-3.9,0.2-7.8-0.1-11.7c-0.1-1.2-0.9-2.7-1.9-3.3c-6.7-4.1-13.6-8-20.5-11.8
				c-0.9-0.5-2.6-0.5-3.5,0c-7,3.9-13.9,7.8-20.7,11.9C2.8,17,2,18.4,2,19.4C1.9,27.2,2,35,1.9,42.8c0,1.8,0.6,2.9,2.2,3.8
				c6.7,3.8,13.3,7.7,20,11.4c0.9,0.5,2.6,0.6,3.6,0.1c7-3.9,13.9-7.8,20.7-12c0.9-0.5,1.7-2,1.8-3.1C50.4,39.2,50.3,35.3,50.3,31.4
				z"/>
			<path class="st1" d="M50.3,31.4c0,3.9,0.1,7.8-0.1,11.7c-0.1,1.1-0.9,2.5-1.8,3.1c-6.8,4.1-13.7,8.1-20.7,12
				c-0.9,0.5-2.6,0.4-3.6-0.1c-6.7-3.7-13.3-7.7-20-11.4c-1.6-0.9-2.2-2-2.2-3.8C2,35.1,1.9,27.3,2,19.5c0-1,0.8-2.4,1.6-2.9
				c6.8-4.1,13.7-8.1,20.7-11.9c0.9-0.5,2.6-0.5,3.5,0c6.9,3.8,13.7,7.7,20.5,11.8c1,0.6,1.8,2.2,1.9,3.3
				C50.5,23.6,50.3,27.5,50.3,31.4L50.3,31.4z M45.5,20.3c0.2-0.1,0.2-0.4,0-0.5C39.1,16.1,33.1,12.5,27,9.1
				c-0.6-0.3-1.8-0.1-2.5,0.3c-5.5,3.1-10.8,6.2-16.3,9.3c-1.3,0.7-1.8,1.5-1.8,3.1c0.1,5,0.4,10.1-0.1,15.1c-0.4,4.3,1,6.7,4.9,8.6
				c4.7,2.2,9.1,5.1,14.1,8c0.2,0.1,0.4,0,0.4-0.2c0-1.2,0-2,0-2.8c0-5.4,0.1-10.8,0-16.2c0-1.8,0.6-2.9,2.2-3.8
				C33.7,27.2,39.4,23.8,45.5,20.3z"/>
			
				<linearGradient id="SVGID_1_" gradientUnits="userSpaceOnUse" x1="25.9921" y1="113.6637" x2="25.9921" y2="69.082" gradientTransform="matrix(1 0 0 1 0 -60.0922)">
				<stop  offset="0" style="stop-color:#B31E37"/>
				<stop  offset="0.9997" style="stop-color:#DB1E34"/>
			</linearGradient>
			<path class="st2" d="M45.5,19.8c0.2,0.1,0.2,0.4,0,0.5c-6.1,3.5-11.8,6.9-17.5,10.1c-1.6,0.9-2.3,2-2.2,3.8
				c0.1,5.4,0,10.8,0,16.2c0,0.8,0,1.6,0,2.8c0,0.2-0.2,0.3-0.4,0.2c-5-2.9-9.4-5.8-14.1-8c-3.9-1.8-5.3-4.3-4.9-8.6
				c0.4-5,0.2-10.1,0.1-15.1c0-1.6,0.5-2.4,1.8-3.1c5.4-3.1,10.8-6.3,16.3-9.3c0.7-0.4,1.9-0.7,2.5-0.3
				C33.1,12.5,39.1,16.1,45.5,19.8z"/>
		</g>
	</g>
</g>
<g>
	<g>
		<path class="st3" d="M94,23.2h11.6c0.1,0,0.3,0.1,0.3,0.3V29c0,0.1-0.1,0.3-0.3,0.3H94c-0.1,0-0.3-0.1-0.3-0.3v-5.5
			C93.8,23.3,93.9,23.2,94,23.2z"/>
		<path class="st3" d="M115.5,38.4c-4.8,0-7-2.2-7-7V21.1c0-4.8,2.3-7,7-7h11.3c4.8,0,7,2.2,7,7v10.3c0,4.8-2.3,7-7,7H115.5
			L115.5,38.4z M124.1,32c1.6,0,2.2-0.6,2.2-2.2v-7.2c0-1.7-0.6-2.2-2.2-2.2h-5.9c-1.7,0-2.2,0.6-2.2,2.2v7.2c0,1.7,0.6,2.2,2.2,2.2
			H124.1z"/>
		<path class="st3" d="M155,14.1h6.7c0.1,0,0.3,0.1,0.3,0.3v23.8c0,0.1-0.1,0.3-0.3,0.3H156c-0.1,0-0.1,0-0.2-0.1l-11.2-13.1
			c-0.2-0.2-0.5-0.1-0.5,0.2v12.7c0,0.1-0.1,0.3-0.3,0.3h-6.7c-0.1,0-0.3-0.1-0.3-0.3V14.3c0-0.1,0.1-0.3,0.3-0.3h6
			c0.1,0,0.1,0,0.2,0.1l10.9,12.7c0.2,0.2,0.5,0.1,0.5-0.2V14.3C154.7,14.2,154.8,14.1,155,14.1z"/>
	</g>
	<path class="st3" d="M83,30.2c-0.1,0-0.3,0.1-0.3,0.3l0,0c0,1.9-0.7,2.5-2.5,2.5h-6c-1.9,0-2.5-0.6-2.5-2.5v-8.4
		c0-1.9,0.6-2.5,2.5-2.5h6c1.9,0,2.5,0.6,2.5,2.5l0,0c0,0.1,0.1,0.3,0.3,0.3h7.8c0.1,0,0.3-0.1,0.3-0.3v-1.7c0-5.5-2.6-8-8-8H71.2
		c-5.4,0-8,2.5-8,8v11.8c0,5.5,2.6,8,8,8H83c5.4,0,8-2.5,8-8v-1.7c0-0.1-0.1-0.3-0.3-0.3H83L83,30.2z"/>
	<g>
		<path d="M72.5,51c-0.4,0.7-0.9,1.3-1.6,1.7s-1.5,0.6-2.3,0.6c-1.2,0-2.3-0.4-3.2-1.3c-0.9-0.8-1.3-1.9-1.3-3.1
			c0-1.2,0.4-2.2,1.3-3.1c0.9-0.8,1.9-1.3,3.1-1.3c0.8,0,1.6,0.2,2.3,0.6c0.8,0.4,1.3,1,1.6,1.7h-0.9c-0.3-0.5-0.7-0.8-1.3-1.1
			c-0.5-0.3-1.1-0.4-1.7-0.4c-1,0-1.8,0.4-2.5,1.1c-0.7,0.7-1.1,1.5-1.1,2.5s0.4,1.8,1.1,2.5s1.6,1.1,2.5,1.1c0.6,0,1.1-0.1,1.6-0.4
			c0.5-0.3,1-0.6,1.3-1.1H72.5L72.5,51z"/>
		<path d="M81.3,53.2h-0.9l-1.2-2.8h-4L74,53.2h-0.9l3.7-8.5h0.9l2.5,5.9L81.3,53.2z M78.9,49.6l-1.6-3.9l-1.6,3.9H78.9z"/>
		<path d="M88.1,47.5c0,0.7-0.2,1.3-0.7,1.8s-1.1,0.8-1.8,0.8l2.4,3.2h-1.1l-2.9-4h0.3c0.1,0,0.2,0,0.2,0c0.4,0,0.7,0,0.9,0
			c0.2,0,0.4-0.1,0.7-0.2c0.3-0.2,0.6-0.4,0.8-0.7c0.2-0.3,0.3-0.6,0.3-1c0-0.3-0.1-0.6-0.2-0.8s-0.3-0.5-0.6-0.7
			c-0.2-0.2-0.5-0.3-0.8-0.3s-0.7-0.1-1.1-0.1h-1.3v7.7h-0.9v-8.5h2c0.6,0,1,0,1.4,0.1c0.3,0,0.7,0.2,1,0.3c0.4,0.2,0.8,0.6,1,1
			C88,46.5,88.1,47,88.1,47.5z"/>
		<path d="M97.9,49.3c0,1.1-0.5,2.1-1.4,2.9c-0.9,0.8-1.9,1.2-3.1,1.2s-2.3-0.4-3.2-1.3c-0.9-0.9-1.3-1.9-1.3-3.1
			c0-0.5,0.1-1.1,0.3-1.6c0.2-0.5,0.5-1,1-1.4c0.4-0.4,0.9-0.8,1.5-1c0.5-0.2,1.1-0.3,1.8-0.3c0.8,0,1.6,0.2,2.4,0.6
			c0.8,0.5,1.3,1,1.6,1.8h-1c-0.3-0.5-0.7-0.9-1.3-1.2c-0.5-0.3-1.1-0.4-1.8-0.4c-0.5,0-0.9,0.1-1.3,0.2s-0.8,0.4-1.2,0.7
			c-0.4,0.3-0.6,0.7-0.8,1.2c-0.2,0.5-0.3,0.9-0.3,1.4c0,1,0.4,1.9,1.1,2.6c0.7,0.7,1.6,1,2.6,1c0.8,0,1.5-0.2,2.1-0.7
			s1.1-1,1.3-1.8h-4.7v-0.8L97.9,49.3L97.9,49.3z"/>
		<path d="M107.9,48.9c0,1.2-0.4,2.3-1.3,3.1c-0.9,0.9-1.9,1.3-3.2,1.3c-1.2,0-2.2-0.4-3.1-1.3c-0.9-0.8-1.3-1.9-1.3-3.1
			c0-1.2,0.4-2.3,1.3-3.1c0.9-0.9,1.9-1.3,3.2-1.3c1.2,0,2.3,0.4,3.2,1.3C107.4,46.7,107.9,47.7,107.9,48.9z M107,48.9
			c0-1-0.4-1.8-1.1-2.5s-1.6-1-2.6-1s-1.9,0.4-2.6,1.1c-0.7,0.7-1.1,1.6-1.1,2.5c0,1,0.4,1.8,1.1,2.5s1.6,1,2.5,1c1,0,1.9-0.3,2.6-1
			C106.7,50.8,107,49.9,107,48.9z"/>
		<path d="M116,54.6c-0.4-0.1-0.8-0.4-1.2-0.7c-0.4-0.3-0.7-0.7-1-1.1c-0.6-0.9-1-2-1-3.1s0.3-2.1,0.9-3.1c0.3-0.4,0.6-0.8,1-1.2
			s0.9-0.6,1.3-0.8v0.7c-0.7,0.4-1.3,1-1.7,1.8c-0.4,0.8-0.6,1.6-0.6,2.5c0,0.8,0.2,1.6,0.6,2.4c0.4,0.8,1,1.4,1.7,1.8L116,54.6
			L116,54.6z"/>
		<path d="M122.8,47.2c0,0.8-0.3,1.5-1,2c-0.3,0.2-0.6,0.4-1,0.5c-0.3,0.1-0.7,0.1-1.2,0.1H118v3.4h-0.8v-8.5h2.2c0.5,0,1,0,1.3,0.1
			s0.7,0.2,1,0.4s0.6,0.5,0.8,0.9C122.7,46.4,122.8,46.8,122.8,47.2z M122,47.2c0-0.8-0.4-1.3-1.1-1.6c-0.2-0.1-0.4-0.1-0.6-0.2
			c-0.2,0-0.4,0-0.7,0c-0.1,0-0.2,0-0.3,0s-0.2,0-0.3,0h-1.1v3.5h1.5c0.5,0,0.8,0,1.1-0.1c0.2-0.1,0.5-0.1,0.6-0.3
			c0.2-0.1,0.4-0.3,0.5-0.6C121.9,47.8,122,47.5,122,47.2z"/>
		<path d="M131.2,44.7l-3.5,8.5h-0.8l-3.5-8.5h0.9l3,7.4l3-7.4H131.2z"/>
		<path d="M136.8,45.5h-1.9v7.7H134v-7.7h-1.9v-0.8h4.7V45.5z"/>
		<path d="M140.5,49.7c0,1.1-0.3,2.2-1,3.1c-0.3,0.4-0.6,0.8-1,1.1c-0.4,0.4-0.8,0.6-1.2,0.7v-0.7c0.7-0.4,1.3-1,1.7-1.8
			s0.6-1.6,0.6-2.4c0-0.9-0.2-1.7-0.6-2.5c-0.4-0.8-1-1.4-1.7-1.8v-0.7c0.4,0.1,0.9,0.4,1.3,0.8c0.4,0.3,0.7,0.7,1,1.2
			C140.2,47.5,140.5,48.6,140.5,49.7z"/>
		<path d="M150.1,53.2h-4.4v-8.5h0.8v7.7h3.5L150.1,53.2L150.1,53.2z"/>
		<path d="M154.9,45.5H153v7.7h-0.8v-7.7h-1.9v-0.8h4.7v0.8H154.9z"/>
		<path d="M163.1,48.9c0,0.6-0.1,1.2-0.4,1.7s-0.6,1-1,1.5c-0.5,0.4-1,0.7-1.6,0.9c-0.5,0.1-1.1,0.2-1.8,0.2H156v-8.5h2.3
			c0.7,0,1.3,0.1,1.8,0.2c0.5,0.1,1,0.4,1.5,0.8c0.5,0.4,0.9,0.9,1.1,1.4C162.9,47.7,163.1,48.3,163.1,48.9z M162.2,48.9
			c0-1.1-0.4-2-1.3-2.7c-0.3-0.3-0.7-0.4-1.1-0.6c-0.4-0.1-1.1-0.2-1.9-0.2h-1.1v6.9h1.1c0.7,0,1.2,0,1.6-0.1c0.5-0.1,1-0.3,1.5-0.7
			C161.8,50.9,162.2,50,162.2,48.9z"/>
	</g>
</g>
</svg>
