<?xml version="1.0" encoding="utf-8"?>
<!-- Generator: Adobe Illustrator 28.3.0, SVG Export Plug-In . SVG Version: 6.00 Build 0)  -->
<svg version="1.1" id="Layer_1" xmlns="http://www.w3.org/2000/svg" xmlns:xlink="http://www.w3.org/1999/xlink" x="0px" y="0px"
	 viewBox="0 0 2973.9 1093.2" style="enable-background:new 0 0 2973.9 1093.2;" xml:space="preserve">
<style type="text/css">
	.st0{fill:url(#SVGID_1_);}
	.st1{fill:none;stroke:#000000;stroke-width:10;stroke-miterlimit:10;}
</style>
<g>
	<g id="pmXdcq_00000080166684660838374960000016314642350402266536_">
		<g>
			<path d="M941.6,552.4c0,74.6,2.4,149.4-1.5,223.8c-1.1,20.7-15.9,48.8-33.1,59.2c-127.4,77.1-256.6,151.4-386.6,224
				c-15.3,8.6-43.6,8.8-58.8,0.3c-133.2-74-265.2-150.2-396.2-228c-13.7-8.1-26.1-31-26.3-47.2c-1.9-152.7-2-305.4,0.3-458
				c0.3-17.2,13.9-41.3,28.7-50.2c127.8-76.7,257.6-150,385.9-225.7c24.6-14.5,43.5-16.9,69.5-1.5C653,125.9,784.3,199.8,913.7,277
				c13.7,8.1,26.1,30.4,26.6,46.5C943.1,399.7,941.6,476.1,941.6,552.4z M923.3,555.6c0.2,0,0.4,0,0.5,0c0-69.7,2.6-139.5-1.6-208.9
				c-1.3-20.7-16.7-48.5-34.2-59.1C767.7,214.7,645.7,144.5,522.6,76.4c-16.5-9.1-46.6-9.3-63-0.3
				c-124.7,68.8-248,140.1-370.2,213.3c-14.8,8.9-27.9,33.7-28.2,51.4c-2.4,139.3-0.7,278.6-2.3,417.9
				c-0.4,32.8,10.7,52.1,39.6,68.4c119.8,67.3,237.6,137.9,357.8,204.4c16.8,9.3,47.2,10.6,63.6,1.6c124.6-68.8,248-140.1,370-213.6
				c16.2-9.8,30.8-35.8,31.8-55C925.6,695,923.3,625.2,923.3,555.6z"/>
			
				<linearGradient id="SVGID_1_" gradientUnits="userSpaceOnUse" x1="489.3368" y1="393.5335" x2="489.3368" y2="1189.6482" gradientTransform="matrix(1 0 0 -1 0 1344)">
				<stop  offset="0" style="stop-color:#B31E37"/>
				<stop  offset="0.9997" style="stop-color:#DB1E34"/>
			</linearGradient>
			<path class="st0" d="M838.2,347.7c3.2,1.9,3.2,6.5,0,8.4C728.9,419.4,627.7,479.2,525,536.4c-29.1,16.2-40.3,35.4-39.6,68.4
				c1.9,96.6,0.8,193.3,0.8,290c0,14.4,0,28.9,0,50.8c0,3.7-4,6.1-7.3,4.2c-89.8-52-168.1-103.6-252.1-142.8
				c-70.4-32.8-94.2-76.6-87.7-153c7.6-89.2,3.4-179.7,1-269.5c-0.8-28.2,8.9-42.2,32.1-55.3c97.3-54.8,193.4-111.8,290.9-166.4
				c12.5-7,34.1-11.7,44.9-5.7C616.2,217.9,723.2,280.8,838.2,347.7z"/>
		</g>
	</g>
</g>
<g>
	<g>
		<path d="M1703.9,408.6h206.7c2.6,0,4.6,2.1,4.6,4.6v98.7c0,2.6-2.1,4.6-4.6,4.6h-206.7c-2.6,0-4.6-2.1-4.6-4.6v-98.6
			C1699.3,410.7,1701.3,408.6,1703.9,408.6z"/>
		<path d="M2087.9,679.9c-85,0-125.4-39.1-125.4-125.4V370.8c0-86.3,40.3-125.4,125.4-125.4h202.4c85,0,125.4,39.1,125.4,125.4
			v183.7c0,86.3-40.4,125.4-125.4,125.4H2087.9L2087.9,679.9z M2241.8,566.3c29.2,0,39.7-9.9,39.7-39.7V398.7
			c0-29.8-10.6-39.7-39.7-39.7h-105.5c-29.8,0-39.7,9.9-39.7,39.7v127.9c0,29.8,9.9,39.7,39.7,39.7L2241.8,566.3L2241.8,566.3z"/>
		<path d="M2792.1,245.4h119.8c2.6,0,4.6,2.1,4.6,4.6v425.3c0,2.6-2.1,4.6-4.6,4.6h-101.2c-1.4,0-2.6-0.6-3.5-1.6l-200.3-233.4
			c-2.8-3.3-8.2-1.3-8.2,3v227.4c0,2.6-2.1,4.6-4.6,4.6h-119.8c-2.6,0-4.6-2.1-4.6-4.6V250c0-2.6,2.1-4.6,4.6-4.6h106.8
			c1.4,0,2.6,0.6,3.5,1.6l194.7,226.6c2.8,3.3,8.2,1.3,8.2-3V250C2787.5,247.5,2789.5,245.4,2792.1,245.4z"/>
	</g>
	<path d="M1507.6,533.3c-2.6,0-4.6,2.1-4.6,4.6l0,0c0,34.1-12.1,45.4-45.4,45.4h-106.5c-34.1,0-45.4-11.4-45.4-45.4V387.4
		c0-34.1,11.4-45.4,45.4-45.4h106.5c33.4,0,45.4,11.4,45.4,45.4l0,0c0,2.6,2.1,4.6,4.6,4.6H1646c2.6,0,4.6-2.1,4.6-4.6v-29.8
		c0-98.7-46.1-143.4-143.4-143.4h-211.6c-97.3,0-143.4,44.7-143.4,143.4v210.1c0,98.7,46.1,143.4,143.4,143.4h211.6
		c97.3,0,143.4-44.7,143.4-143.4v-29.8c0-2.6-2.1-4.6-4.6-4.6H1507.6L1507.6,533.3z"/>
	<g>
		<path d="M1319.1,904.2c-6.5,12.5-16.2,22.6-28.8,30.3s-26.2,11.6-40.5,11.6c-22.2,0-41-7.5-56.3-22.6c-15.3-15-23-33.7-23-56.1
			c0-21.5,7.6-39.8,22.9-54.9c15.3-15.1,33.7-22.7,55.2-22.7c14.4,0,28.3,3.6,41.5,10.8c14.3,7.9,23.8,18.1,28.4,30.5h-16.8
			c-5.5-8.5-13-15-22.6-19.7s-19.7-7.1-30.4-7.1c-17,0-31.8,6.3-44.4,19c-12.5,12.7-18.8,27.4-18.8,44.1c0,17.6,6.4,32.6,19.1,45.2
			c12.7,12.6,27.8,18.9,45.1,18.9c10.2,0,20-2.5,29.4-7.4s17.1-11.6,23.1-20h16.9L1319.1,904.2L1319.1,904.2z"/>
		<path d="M1477.4,943.7h-16.5l-21.8-50.8h-70.7l-21.8,50.7h-16.3l65.2-151.3h16.8l45,104.7L1477.4,943.7z M1433.2,879.3l-29.3-69.7
			l-29.4,69.7H1433.2z"/>
		<path d="M1597.6,841.8c0,12.4-4.4,23.1-13.2,32c-8.8,8.9-19.3,13.4-31.6,13.4l42.8,56.4l-19.1,0.1l-51.3-68.5h4.5
			c1.8,0,3.1,0,4.1,0c7.2,0,12.7-0.2,16.6-0.6c3.8-0.4,7.9-1.6,12.3-3.5c6.1-2.9,11-7,14.5-12.5s5.3-11.6,5.3-18.4
			c0-5.2-1.3-10.2-3.9-15.1c-2.6-4.9-6.1-8.9-10.4-12c-4.4-3.1-9.3-5-14.8-5.8s-12-1.2-19.3-1.2h-23.9v137.6H1495V792.3h36
			c10.4,0,18.6,0.4,24.7,1.1c6.1,0.8,12.2,2.8,18.2,6.2c7.6,4.4,13.5,10.2,17.6,17.6C1595.6,824.6,1597.6,832.8,1597.6,841.8z"/>
		<path d="M1773.9,873.9c0,20.1-8.3,37.3-24.7,51.6c-16,13.7-34.4,20.6-55.4,20.6c-22,0-40.9-7.7-57-23c-16-15.3-24-33.9-24-55.9
			c0-9.8,2.1-19.5,6.2-29.2c4.2-9.7,9.8-18,17.1-25.1c7.8-7.6,16.6-13.4,26.4-17.3c9.8-3.9,20.2-5.8,31.3-5.8
			c15.1,0,29.3,3.7,42.5,11c14.6,8.2,24.1,18.7,28.4,31.7h-17.2c-5.2-8.7-12.7-15.6-22.5-20.7c-9.8-5-20.2-7.6-31.3-7.6
			c-8.5,0-16.5,1.4-24.1,4.2s-14.6,7.1-21,12.9c-6.3,5.8-11.4,12.8-15.1,20.9c-3.8,8.2-5.6,16.5-5.6,25.1c0,18.1,6.5,33.3,19.5,45.6
			s28.7,18.5,46.9,18.5c13.9,0,26.7-4.1,38.2-12.2c11.6-8.1,19.3-18.7,23.1-31.8h-84.7v-13.7h103L1773.9,873.9L1773.9,873.9z"/>
		<path d="M1951.4,867.5c0,21.9-7.8,40.5-23.5,55.8c-15.7,15.2-34.6,22.9-56.6,22.9c-21.4,0-40.1-7.5-55.9-22.6
			c-15.9-15-23.8-33.3-23.8-54.8c0-22.1,7.8-40.7,23.3-56c15.5-15.2,34.4-22.9,56.4-22.9c21.7,0,40.5,7.5,56.3,22.6
			C1943.5,827.5,1951.4,845.8,1951.4,867.5z M1936.3,867.5c0-17.6-6.4-32.5-19.1-44.7c-12.8-12.3-28-18.4-45.7-18.4
			c-17.9,0-33.1,6.3-45.8,18.8s-19,27.7-19,45.5c0,17.3,6.4,32.1,19.3,44.4c12.9,12.3,28,18.5,45.5,18.5c18,0,33.3-6.2,45.9-18.7
			C1930,900.5,1936.3,885.3,1936.3,867.5z"/>
	</g>
</g>
<line class="st1" x1="2010" y1="879.2" x2="2916.5" y2="879.2"/>
</svg>
