<?xml version="1.0" encoding="utf-8"?>
<!-- Generator: Adobe Illustrator 27.0.0, SVG Export Plug-In . SVG Version: 6.00 Build 0)  -->
<svg version="1.1" id="Layer_1" xmlns="http://www.w3.org/2000/svg" xmlns:xlink="http://www.w3.org/1999/xlink" x="0px" y="0px"
	 viewBox="0 0 2973.9 1093.2" style="enable-background:new 0 0 2973.9 1093.2;" xml:space="preserve">
<style type="text/css">
	.st0{fill:#FFFFFF;}
	.st1{fill:url(#SVGID_1_);}
</style>
<g>
	<g id="pmXdcq_00000080166684660838374960000016314642350402266536_">
		<g>
			<path class="st0" d="M941.6,550.1c0,74.6,2.4,149.4-1.5,223.8c-1.1,20.7-15.9,48.8-33.1,59.2c-127.4,77.1-256.6,151.4-386.6,224
				c-15.3,8.6-43.6,8.8-58.8,0.3c-133.2-74-265.2-150.2-396.2-228c-13.7-8.1-26.1-31-26.3-47.2c-1.9-152.7-2-305.4,0.3-458
				c0.3-17.2,13.9-41.3,28.7-50.2C195.9,197.3,325.7,124,454,48.3c24.6-14.5,43.5-16.9,69.5-1.5C653,123.6,784.3,197.5,913.7,274.7
				c13.7,8.1,26.1,30.4,26.6,46.5C943.1,397.4,941.6,473.8,941.6,550.1z M923.3,553.3c0.2,0,0.4,0,0.5,0c0-69.7,2.6-139.5-1.6-208.9
				c-1.3-20.7-16.7-48.5-34.2-59.1C767.7,212.4,645.7,142.2,522.6,74.1c-16.5-9.1-46.6-9.3-63-0.3
				c-124.7,68.8-248,140.1-370.2,213.3c-14.8,8.9-27.9,33.7-28.2,51.4c-2.4,139.3-0.7,278.6-2.3,417.9
				c-0.4,32.8,10.7,52.1,39.6,68.4c119.8,67.3,237.6,137.9,357.8,204.4c16.8,9.3,47.2,10.6,63.6,1.6c124.6-68.8,248-140.1,370-213.6
				c16.2-9.8,30.8-35.8,31.8-55C925.6,692.7,923.3,622.9,923.3,553.3z"/>
			
				<linearGradient id="SVGID_1_" gradientUnits="userSpaceOnUse" x1="489.3368" y1="145.8336" x2="489.3368" y2="941.9482" gradientTransform="matrix(1 0 0 -1 0 1094)">
				<stop  offset="0" style="stop-color:#B31E37"/>
				<stop  offset="0.9997" style="stop-color:#DB1E34"/>
			</linearGradient>
			<path class="st1" d="M838.2,345.4c3.2,1.9,3.2,6.5,0,8.4C728.9,417.1,627.7,476.9,525,534.1c-29.1,16.2-40.3,35.4-39.6,68.4
				c1.9,96.6,0.8,193.3,0.8,290c0,14.4,0,28.9,0,50.8c0,3.7-4,6.1-7.3,4.2c-89.8-52-168.1-103.6-252.1-142.8
				c-70.4-32.8-94.2-76.6-87.7-153c7.6-89.2,3.4-179.7,1-269.5c-0.8-28.2,8.9-42.2,32.1-55.3c97.3-54.8,193.4-111.8,290.9-166.4
				c12.5-7,34.1-11.7,44.9-5.7C616.2,215.6,723.2,278.5,838.2,345.4z"/>
		</g>
	</g>
</g>
<g>
	<g>
		<path class="st0" d="M1703.9,406.3h206.7c2.6,0,4.6,2.1,4.6,4.6v98.7c0,2.6-2.1,4.6-4.6,4.6h-206.7c-2.6,0-4.6-2.1-4.6-4.6V411
			C1699.3,408.4,1701.3,406.3,1703.9,406.3z"/>
		<path class="st0" d="M2087.9,677.6c-85,0-125.4-39.1-125.4-125.4V368.5c0-86.3,40.3-125.4,125.4-125.4h202.4
			c85,0,125.4,39.1,125.4,125.4v183.7c0,86.3-40.4,125.4-125.4,125.4L2087.9,677.6L2087.9,677.6z M2241.8,564
			c29.2,0,39.7-9.9,39.7-39.7V396.4c0-29.8-10.6-39.7-39.7-39.7h-105.5c-29.8,0-39.7,9.9-39.7,39.7v127.9c0,29.8,9.9,39.7,39.7,39.7
			H2241.8z"/>
		<path class="st0" d="M2792.1,243.1h119.8c2.6,0,4.6,2.1,4.6,4.6V673c0,2.6-2.1,4.6-4.6,4.6h-101.2c-1.4,0-2.6-0.6-3.5-1.6
			l-200.3-233.4c-2.8-3.3-8.2-1.3-8.2,3V673c0,2.6-2.1,4.6-4.6,4.6h-119.8c-2.6,0-4.6-2.1-4.6-4.6V247.7c0-2.6,2.1-4.6,4.6-4.6
			h106.8c1.4,0,2.6,0.6,3.5,1.6l194.7,226.6c2.8,3.3,8.2,1.3,8.2-3V247.7C2787.5,245.2,2789.5,243.1,2792.1,243.1z"/>
	</g>
	<path class="st0" d="M1507.6,531c-2.6,0-4.6,2.1-4.6,4.6l0,0c0,34.1-12.1,45.4-45.4,45.4h-106.5c-34.1,0-45.4-11.4-45.4-45.4V385.1
		c0-34.1,11.4-45.4,45.4-45.4h106.5c33.4,0,45.4,11.4,45.4,45.4l0,0c0,2.6,2.1,4.6,4.6,4.6H1646c2.6,0,4.6-2.1,4.6-4.6v-29.8
		c0-98.7-46.1-143.4-143.4-143.4h-211.6c-97.3,0-143.4,44.7-143.4,143.4v210.1c0,98.7,46.1,143.4,143.4,143.4h211.6
		c97.3,0,143.4-44.7,143.4-143.4v-29.8c0-2.6-2.1-4.6-4.6-4.6L1507.6,531L1507.6,531z"/>
	<g>
		<path class="st0" d="M1319.1,901.9c-6.5,12.5-16.2,22.6-28.8,30.3s-26.2,11.6-40.5,11.6c-22.2,0-41-7.5-56.3-22.6
			c-15.3-15-23-33.7-23-56.1c0-21.5,7.6-39.8,22.9-54.9c15.3-15.1,33.7-22.7,55.2-22.7c14.4,0,28.3,3.6,41.5,10.8
			c14.3,7.9,23.8,18.1,28.4,30.5h-16.8c-5.5-8.5-13-15-22.6-19.7s-19.7-7.1-30.4-7.1c-17,0-31.8,6.3-44.4,19
			c-12.5,12.7-18.8,27.4-18.8,44.1c0,17.6,6.4,32.6,19.1,45.2c12.7,12.6,27.8,18.9,45.1,18.9c10.2,0,20-2.5,29.4-7.4
			s17.1-11.6,23.1-20h16.9V901.9z"/>
		<path class="st0" d="M1477.4,941.4h-16.5l-21.8-50.8h-70.7l-21.8,50.7h-16.3l65.2-151.3h16.8l45,104.7L1477.4,941.4z M1433.2,877
			l-29.3-69.7l-29.4,69.7H1433.2z"/>
		<path class="st0" d="M1597.6,839.5c0,12.4-4.4,23.1-13.2,32c-8.8,8.9-19.3,13.4-31.6,13.4l42.8,56.4l-19.1,0.1l-51.3-68.5h4.5
			c1.8,0,3.1,0,4.1,0c7.2,0,12.7-0.2,16.6-0.6c3.8-0.4,7.9-1.6,12.3-3.5c6.1-2.9,11-7,14.5-12.5s5.3-11.6,5.3-18.4
			c0-5.2-1.3-10.2-3.9-15.1c-2.6-4.9-6.1-8.9-10.4-12c-4.4-3.1-9.3-5-14.8-5.8s-12-1.2-19.3-1.2h-23.9v137.6H1495V790h36
			c10.4,0,18.6,0.4,24.7,1.1c6.1,0.8,12.2,2.8,18.2,6.2c7.6,4.4,13.5,10.2,17.6,17.6C1595.6,822.3,1597.6,830.5,1597.6,839.5z"/>
		<path class="st0" d="M1773.9,871.6c0,20.1-8.3,37.3-24.7,51.6c-16,13.7-34.4,20.6-55.4,20.6c-22,0-40.9-7.7-57-23
			c-16-15.3-24-33.9-24-55.9c0-9.8,2.1-19.5,6.2-29.2c4.2-9.7,9.8-18,17.1-25.1c7.8-7.6,16.6-13.4,26.4-17.3
			c9.8-3.9,20.2-5.8,31.3-5.8c15.1,0,29.3,3.7,42.5,11c14.6,8.2,24.1,18.7,28.4,31.7h-17.2c-5.2-8.7-12.7-15.6-22.5-20.7
			c-9.8-5-20.2-7.6-31.3-7.6c-8.5,0-16.5,1.4-24.1,4.2s-14.6,7.1-21,12.9c-6.3,5.8-11.4,12.8-15.1,20.9c-3.8,8.2-5.6,16.5-5.6,25.1
			c0,18.1,6.5,33.3,19.5,45.6s28.7,18.5,46.9,18.5c13.9,0,26.7-4.1,38.2-12.2c11.6-8.1,19.3-18.7,23.1-31.8h-84.7v-13.7h103V871.6z"
			/>
		<path class="st0" d="M1951.4,865.2c0,21.9-7.8,40.5-23.5,55.8c-15.7,15.2-34.6,22.9-56.6,22.9c-21.4,0-40.1-7.5-55.9-22.6
			c-15.9-15-23.8-33.3-23.8-54.8c0-22.1,7.8-40.7,23.3-56c15.5-15.2,34.4-22.9,56.4-22.9c21.7,0,40.5,7.5,56.3,22.6
			C1943.5,825.2,1951.4,843.5,1951.4,865.2z M1936.3,865.2c0-17.6-6.4-32.5-19.1-44.7c-12.8-12.3-28-18.4-45.7-18.4
			c-17.9,0-33.1,6.3-45.8,18.8s-19,27.7-19,45.5c0,17.3,6.4,32.1,19.3,44.4c12.9,12.3,28,18.5,45.5,18.5c18,0,33.3-6.2,45.9-18.7
			C1930,898.2,1936.3,883,1936.3,865.2z"/>
		<path class="st0" d="M2095.8,967.1c-7.1-1.9-14.5-6.3-22.3-13.1c-6.4-5.6-12.1-12.1-17.2-19.6c-11.6-16.9-17.4-35.3-17.4-55.4
			c0-19.7,5.4-38.1,16.2-54.9c5.3-8,11.1-14.9,17.4-20.6c7.8-7.1,15.5-11.6,23.3-13.5v13.3c-12.8,7.2-23,17.8-30.5,31.9
			c-7.5,14-11.2,28.7-11.2,43.9c0,14.7,3.8,29.1,11.5,43.1c7.6,14,17.7,24.6,30.3,31.7v13.2H2095.8z"/>
		<path class="st0" d="M2218.5,835.4c0,15.1-5.8,26.9-17.4,35.2c-5.3,4-11.5,6.7-18.6,8.2c-5.2,1.1-12.1,1.6-20.7,1.6h-28.4v60.9
			h-15.1V790h39.7c9.5,0,17.2,0.4,23.1,1.3c5.9,0.9,11.8,3.2,17.9,7.1c6.1,3.8,10.8,9,14.3,15.5
			C2216.8,820.5,2218.5,827.7,2218.5,835.4z M2203.4,835.3c0-13.6-6.3-23-18.9-28.1c-3.4-1.4-6.8-2.3-10.1-2.7
			c-3.3-0.5-7.2-0.7-11.7-0.7c-1.6,0-3.3,0-4.9,0c-1.6,0-3.3,0-4.9,0h-19.5v63h26c8.5,0,14.8-0.5,19.1-1.5c4.2-1,8.1-2.5,11.5-4.6
			c4.2-2.6,7.5-6.1,9.8-10.7C2202.2,845.4,2203.4,840.5,2203.4,835.3z"/>
		<path class="st0" d="M2368.2,790L2305,941.4h-14.3L2228.3,790l16.4,0.1l53.1,133l53.8-133L2368.2,790z"/>
		<path class="st0" d="M2468,803.7h-34.4v137.6h-15.1V803.7h-34.8V790h84.3V803.7z"/>
		<path class="st0" d="M2533.3,879.1c0,20.3-5.8,38.7-17.4,55.4c-5,7.4-10.8,13.9-17.2,19.6c-7.6,6.8-15.1,11.2-22.3,13.1v-13.3
			c12.5-7.1,22.6-17.6,30.3-31.6c7.6-14,11.5-28.4,11.5-43.2c0-15.3-3.8-29.9-11.2-43.9c-7.5-14-17.7-24.6-30.5-31.9V790
			c7.8,2.2,15.5,6.7,23.1,13.5c6.5,5.9,12.4,12.7,17.6,20.6C2527.9,840.6,2533.3,858.9,2533.3,879.1z"/>
		<path class="st0" d="M2705,941.4h-77.7V790h15.1v137.6h62.6L2705,941.4L2705,941.4z"/>
		<path class="st0" d="M2792,803.7h-34.4v137.6h-15.1V803.7h-34.8V790h84.3V803.7z"/>
		<path class="st0" d="M2936.8,865.5c0,10.6-2.1,20.9-6.4,30.7c-4.3,9.8-10.5,18.4-18.7,25.9c-8.2,7.4-17.6,12.6-28.2,15.6
			c-8.7,2.5-19.6,3.7-32.7,3.7h-41.7V790h40.7c12.1,0,23,1.3,32.5,3.8s18.6,7.2,27.1,14.1c8.5,6.9,15.2,15.4,20.1,25.7
			C2934.3,843.8,2936.8,854.5,2936.8,865.5z M2921.6,865.5c0-19.6-7.8-35.7-23.5-48.1c-5.9-4.5-12.5-7.9-19.9-10.2s-19-3.5-34.7-3.5
			h-19.4v123.9h19.4c12.8,0,22.3-0.6,28.4-1.8c9.8-1.9,18.6-5.9,26.4-12.1C2913.9,901.6,2921.6,885.5,2921.6,865.5z"/>
	</g>
</g>
</svg>
